#N canvas -9 -9 1920 976 12;
#X obj 61 178 interface;
#X obj 122 274 scanner;
#X obj 127 741 dac~ 1 2;
#X obj 151 296 r d/w_scn;
#X obj 120 357 tapedelay;
#X obj 123 455 freeverb;
#X obj 152 379 r d/w_del;
#X obj 187 455 r d/w_rev;
#X obj 61 695 hip~ 20, f 8;
#X obj 202 638 r bypass;
#X obj 91 398 cos_xfade;
#X obj 92 475 cos_xfade;
#X obj 91 315 cos_xfade;
#X obj 61 676 cos_xfade;
#X obj 121 657 line 0 50;
#X obj 246 475 cos_xfade;
#X obj 215 677 cos_xfade;
#X obj 275 657 line 0 50;
#X obj 215 696 hip~ 20, f 8;
#X obj 160 602 looper;
#X obj 161 565 *~ 0.7;
#X obj 62 233 adc~ 1;
#X text 189 272 fx1;
#X text 271 453 fx3;
#X text 220 604 fx4;
#X text 201 355 fx2;
#X text 116 233 audio in (mono);
#X text 195 741 audio out (stereo);
#X text 59 83 This code serves as a demonstration of utilizing the
effect_cape in a multi-effect configuration, f 97;
#X text 59 99 and provides all the necessary framework to operate the
hardware., f 97;
#X text 60 33 A time-based audio effects chain \, specially designed
to run on Bela Mini in combination with the effect_cape., f 110;
#X text 164 315 crossfade between dry/wet;
#X text 146 178 Subpatch to read and address control data received
from the effect cape. (look inside), f 87;
#X connect 1 0 12 1;
#X connect 3 0 12 2;
#X connect 4 0 10 1;
#X connect 5 0 11 1;
#X connect 5 1 15 1;
#X connect 6 0 10 2;
#X connect 7 0 11 2;
#X connect 7 0 15 2;
#X connect 8 0 2 0;
#X connect 9 0 14 0;
#X connect 9 0 17 0;
#X connect 10 0 5 0;
#X connect 10 0 11 0;
#X connect 10 0 15 0;
#X connect 11 0 13 1;
#X connect 11 0 20 0;
#X connect 12 0 4 0;
#X connect 12 0 10 0;
#X connect 13 0 8 0;
#X connect 14 0 13 2;
#X connect 15 0 16 1;
#X connect 15 0 20 0;
#X connect 16 0 18 0;
#X connect 17 0 16 2;
#X connect 18 0 2 1;
#X connect 19 0 13 1;
#X connect 19 0 16 1;
#X connect 20 0 19 0;
#X connect 21 0 1 0;
#X connect 21 0 12 0;
#X connect 21 0 13 0;
#X connect 21 0 16 0;
