#N canvas 289 326 450 521 12;
#X obj 55 83 inlet~ dry;
#X obj 143 83 inlet~ wet;
#X obj 225 83 inlet control;
#X obj 97 305 outlet~;
#X obj 143 271 *~;
#X obj 56 267 *~;
#X obj 225 108 sig~;
#X obj 225 136 lop~ 1;
#X obj 224 162 *~ 0.25;
#X obj 224 188 -~ 0.25;
#X obj 224 217 cos~;
#X obj 88 208 -~ 0.25;
#X obj 89 234 cos~;
#X text 53 40 reduction in the centre position;
#X text 53 20 Cos-sin law crossfade for smaller amplitude;
#X text 53 361 Farnell \, A. (2010) in Designing sound. Cambridge \,
;
#X text 53 377 MA: MIT Press \, pp. 222–223.;
#X text 53 347 Reference:;
#X connect 0 0 5 0;
#X connect 1 0 4 0;
#X connect 2 0 6 0;
#X connect 4 0 3 0;
#X connect 5 0 3 0;
#X connect 6 0 7 0;
#X connect 7 0 8 0;
#X connect 8 0 9 0;
#X connect 9 0 10 0;
#X connect 9 0 11 0;
#X connect 10 0 4 1;
#X connect 11 0 12 0;
#X connect 12 0 5 1;
