#N canvas 84 73 425 249 12;
#X obj 40 65 bng 15 250 50 0 empty empty empty 17 7 0 10 -262144 -1
-1;
#X obj 40 85 t b b;
#X obj 40 108 realtime;
#X obj 40 154 sel 1;
#X obj 40 177 bng 15 250 50 0 empty empty empty 17 7 0 10 -262144 -1
-1;
#X obj 40 43 inlet;
#X obj 40 195 outlet;
#X obj 40 131 > \$1;
#X text 121 57 triggers for a single button press, f 37;
#X text 121 41 Debounce mechanism to avoid multiple, f 37;
#X text 77 131 initialize debounce time in ms on abstraction;
#X connect 0 0 1 0;
#X connect 1 0 2 0;
#X connect 1 1 2 1;
#X connect 2 0 7 0;
#X connect 3 0 4 0;
#X connect 4 0 6 0;
#X connect 5 0 0 0;
#X connect 7 0 3 0;
