#N canvas -9 -9 1920 976 12;
#X obj 397 244 spigot;
#X obj 555 244 spigot;
#X obj 448 507 - 1;
#X obj 555 282 bng 15 250 50 0 empty empty empty 17 7 0 10 -262144
-1 -1;
#X obj 397 282 bng 15 250 50 0 empty empty empty 17 7 0 10 -262144
-1 -1;
#X floatatom 481 674 5 0 0 0 - - -;
#X obj 524 508 + 1;
#X floatatom 481 867 5 0 0 0 - - -;
#X obj 555 490 spigot;
#X obj 594 371 tgl 15 0 empty empty empty 17 7 0 10 -262144 -1 -1 0
1;
#X msg 594 347 1;
#X obj 397 488 spigot;
#X obj 436 371 tgl 15 0 empty empty empty 17 7 0 10 -262144 -1 -1 1
1;
#X msg 436 348 1;
#X obj 481 352 loadbang;
#X obj 481 892 outlet;
#X obj 481 697 clip \$3 \$4;
#X obj 481 635 / \$5;
#X obj 591 692 sel \$4;
#X obj 509 184 r \$1v;
#X obj 509 225 spigot;
#X obj 556 206 r fx\$2;
#X obj 436 225 spigot;
#X obj 594 224 spigot;
#X floatatom 856 481 5 0 0 0 - - -;
#X floatatom 906 482 5 0 0 0 - - -;
#X obj 906 449 f \$4;
#X obj 856 450 f \$3;
#X obj 879 411 loadbang;
#X obj 490 781 r fx\$2;
#X obj 490 848 bng 15 250 50 0 empty empty empty 17 7 0 10 -262144
-1 -1;
#X obj 490 808 sel 1;
#X obj 363 692 sel \$3;
#X obj 217 426 r expression;
#X obj 217 466 spigot;
#X obj 217 446 * \$4;
#X obj 217 488 * \$5;
#X obj 558 808 del 100;
#X obj 558 829 spigot;
#X obj 647 810 r fx\$2;
#X obj 481 507 f \$3;
#X obj 558 761 r exp_desel\$1;
#X obj 558 785 sel 1;
#X obj 481 413 f \$6;
#X obj 481 432 * \$5;
#X obj 361 644 loadbang;
#X obj 362 619 sel 0;
#X obj 430 566 r expIn;
#X obj 362 566 r expOut;
#X obj 362 604 tgl 15 0 empty empty empty 17 7 0 10 -262144 -1 -1 0
1;
#X msg 362 585 0;
#X msg 430 585 1;
#X msg 362 673 1;
#X obj 436 161 r -\$1/\$2e;
#X obj 594 159 r +\$1/\$2e;
#X obj 256 446 r exp_sel\$1/\$2;
#X obj 435 315 r 0en\$1/\$2;
#X obj 594 313 r 1en\$1/\$2;
#X obj 856 505 s gui-\$1/\$2;
#X obj 907 532 s gui/\$1/\$2;
#X text 77 69 <\$1>;
#X text 176 69 <\$2>;
#X text 265 70 <\$3>;
#X text 347 69 <\$4>;
#X text 435 68 <\$5>;
#X text 544 68 <\$6>;
#X obj 363 714 s 0en\$1/\$2;
#X obj 592 714 s 1en\$1/\$2;
#X text 549 183 receive bang for each change;
#X text 218 136 receive value from [encoder_in \$1] on decrese or increase
;
#X text 670 312 receive bang to block message;
#X text 644 693 bang if <max_range> is reached;
#X text 144 693 bang if <min_range> is reached;
#X text 673 714 send bang to block increase;
#X text 515 636 divide value with <nr_of_steps>;
#X text 225 315 receive bang to block message;
#X text 239 330 when <min_range> is reached;
#X text 573 281 bang to increase value;
#X text 236 281 bang to decrease value;
#X text 691 328 when <max_range> is reached;
#X text 624 354 unblock if value decreased;
#X text 246 356 unblock if value increased;
#X text 43 85 <encoder_in_nr> <encoder_nr> <min_range> <max_range>
<nr_of_steps> <initial_value>, f 84;
#X text 519 412 set <initial_value> on load;
#X text 217 407 receive expression value;
#X text 35 447 multiply with <max_range>;
#X text 77 781 send out value each time the corresponding fx is selected
;
#X text 602 783 update value each time expression is deselected;
#X text 642 224 let through only if fx number matches;
#X text 272 464 let through if;
#X text 266 478 exp_sel matches;
#X text 549 509 increase value with 1;
#X text 297 508 decrease value with 1;
#X text 21 601 update value each time expression is deselected;
#X text 166 715 send bang to block decrease;
#X text 308 423 from [exp_in];
#X text 782 553 send <min_range> and <max_range> to [gui];
#X text 785 570 (used to rescale ellipse thickness value);
#X text 49 44 Initialize encoder with following parameters:;
#X text 81 799 (this is used to update values on OLED and GUI display)
;
#X connect 0 0 4 0;
#X connect 1 0 3 0;
#X connect 2 0 40 1;
#X connect 3 0 8 0;
#X connect 3 0 13 0;
#X connect 4 0 11 0;
#X connect 4 0 10 0;
#X connect 5 0 16 0;
#X connect 5 0 18 0;
#X connect 5 0 32 0;
#X connect 6 0 40 1;
#X connect 7 0 15 0;
#X connect 8 0 6 0;
#X connect 8 0 40 0;
#X connect 9 0 8 1;
#X connect 10 0 9 0;
#X connect 11 0 2 0;
#X connect 11 0 40 0;
#X connect 12 0 11 1;
#X connect 13 0 12 0;
#X connect 14 0 9 0;
#X connect 14 0 12 0;
#X connect 14 0 43 0;
#X connect 16 0 7 0;
#X connect 17 0 5 0;
#X connect 18 0 67 0;
#X connect 19 0 20 0;
#X connect 20 0 0 0;
#X connect 20 0 1 0;
#X connect 21 0 22 1;
#X connect 21 0 20 1;
#X connect 21 0 23 1;
#X connect 22 0 0 1;
#X connect 23 0 1 1;
#X connect 24 0 58 0;
#X connect 25 0 59 0;
#X connect 26 0 25 0;
#X connect 27 0 24 0;
#X connect 28 0 27 0;
#X connect 28 0 26 0;
#X connect 29 0 31 0;
#X connect 30 0 7 0;
#X connect 31 0 30 0;
#X connect 32 0 66 0;
#X connect 33 0 35 0;
#X connect 34 0 36 0;
#X connect 35 0 34 0;
#X connect 36 0 40 0;
#X connect 37 0 38 0;
#X connect 38 0 30 0;
#X connect 39 0 38 1;
#X connect 40 0 2 0;
#X connect 40 0 6 0;
#X connect 40 0 17 0;
#X connect 41 0 42 0;
#X connect 42 0 37 0;
#X connect 43 0 44 0;
#X connect 44 0 40 0;
#X connect 45 0 66 0;
#X connect 45 0 52 0;
#X connect 46 0 52 0;
#X connect 47 0 51 0;
#X connect 48 0 50 0;
#X connect 49 0 46 0;
#X connect 50 0 49 0;
#X connect 51 0 49 0;
#X connect 52 0 66 0;
#X connect 53 0 22 0;
#X connect 54 0 23 0;
#X connect 55 0 34 1;
#X connect 56 0 12 0;
#X connect 57 0 9 0;
#X coords 0 976 1 975 85 60 0;
