#N canvas -9 -9 1920 976 12;
#X msg 534 326 0;
#X msg 503 326 1;
#X msg 628 326 0;
#X msg 597 326 1;
#X msg 724 326 0;
#X msg 691 326 1;
#X obj 503 346 tgl 15 0 empty empty empty 17 7 0 10 -262144 -1 -1 0
1;
#X obj 597 346 tgl 15 0 empty empty empty 17 7 0 10 -262144 -1 -1 0
1;
#X obj 691 346 tgl 15 0 empty empty empty 17 7 0 10 -262144 -1 -1 0
1;
#X obj 673 463 tgl 15 0 empty empty empty 17 7 0 10 -262144 -1 -1 0
1;
#X obj 691 406 t b f;
#X obj 673 425 +;
#X obj 673 444 > 1;
#X obj 641 406 t b f;
#X obj 579 463 tgl 15 0 empty empty empty 17 7 0 10 -262144 -1 -1 0
1;
#X obj 597 406 t b f;
#X obj 579 425 +;
#X obj 579 444 > 1;
#X obj 547 406 t b f;
#X obj 485 463 tgl 15 0 empty empty empty 17 7 0 10 -262144 -1 -1 0
1;
#X obj 503 406 t b f;
#X obj 485 425 +;
#X obj 485 444 > 1;
#X obj 453 406 t b f;
#X obj 610 307 r fx1;
#X obj 491 371 r fx1;
#X obj 503 219 r btn2;
#X obj 597 219 r btn3;
#X obj 691 219 r btn4;
#X obj 81 196 adc~ 3;
#X obj 534 307 r expOut;
#X obj 81 353 s expression;
#X obj 503 260 expr_sel;
#X obj 597 260 expr_sel;
#X obj 691 260 expr_sel;
#X obj 81 215 env~;
#X obj 81 234 dbtorms;
#X msg 433 326 0;
#X msg 402 326 1;
#X obj 402 346 tgl 15 0 empty empty empty 17 7 0 10 -262144 -1 -1 0
1;
#X obj 384 463 tgl 15 0 empty empty empty 17 7 0 10 -262144 -1 -1 0
1;
#X obj 402 406 t b f;
#X obj 384 425 +;
#X obj 384 444 > 1;
#X obj 352 406 t b f;
#X obj 402 261 expr_sel;
#X obj 402 220 r btn1;
#X obj 402 307 r expIn;
#X msg 524 647 0;
#X msg 493 647 1;
#X msg 655 647 0;
#X msg 623 647 1;
#X msg 751 647 0;
#X msg 718 647 1;
#X obj 493 666 tgl 15 0 empty empty empty 17 7 0 10 -262144 -1 -1 0
1;
#X obj 623 666 tgl 15 0 empty empty empty 17 7 0 10 -262144 -1 -1 0
1;
#X obj 718 666 tgl 15 0 empty empty empty 17 7 0 10 -262144 -1 -1 0
1;
#X obj 700 738 tgl 15 0 empty empty empty 17 7 0 10 -262144 -1 -1 0
1;
#X obj 718 681 t b f;
#X obj 700 700 +;
#X obj 700 719 > 1;
#X obj 668 681 t b f;
#X obj 605 738 tgl 15 0 empty empty empty 17 7 0 10 -262144 -1 -1 0
1;
#X obj 623 681 t b f;
#X obj 605 700 +;
#X obj 605 719 > 1;
#X obj 573 681 t b f;
#X obj 475 738 tgl 15 0 empty empty empty 17 7 0 10 -262144 -1 -1 0
1;
#X obj 493 681 t b f;
#X obj 475 700 +;
#X obj 475 719 > 1;
#X obj 443 681 t b f;
#X obj 493 590 r btn2;
#X obj 623 590 r btn3;
#X obj 718 590 r btn4;
#X obj 655 628 r expOut;
#X obj 493 609 expr_sel;
#X obj 623 609 expr_sel;
#X obj 718 609 expr_sel;
#X msg 423 647 0;
#X msg 392 647 1;
#X obj 391 666 tgl 15 0 empty empty empty 17 7 0 10 -262144 -1 -1 0
1;
#X obj 373 738 tgl 15 0 empty empty empty 17 7 0 10 -262144 -1 -1 0
1;
#X obj 391 681 t b f;
#X obj 373 700 +;
#X obj 373 719 > 1;
#X obj 341 681 t b f;
#X obj 392 609 expr_sel;
#X obj 392 590 r btn1;
#X obj 392 628 r expIn;
#X msg 875 647 0;
#X msg 843 647 1;
#X msg 971 647 0;
#X msg 938 647 1;
#X obj 843 666 tgl 15 0 empty empty empty 17 7 0 10 -262144 -1 -1 0
1;
#X obj 938 666 tgl 15 0 empty empty empty 17 7 0 10 -262144 -1 -1 0
1;
#X obj 920 738 tgl 15 0 empty empty empty 17 7 0 10 -262144 -1 -1 0
1;
#X obj 938 681 t b f;
#X obj 920 700 +;
#X obj 920 719 > 1;
#X obj 888 681 t b f;
#X obj 825 738 tgl 15 0 empty empty empty 17 7 0 10 -262144 -1 -1 0
1;
#X obj 843 681 t b f;
#X obj 825 700 +;
#X obj 825 719 > 1;
#X obj 843 590 r btn3;
#X obj 938 590 r btn4;
#X obj 875 628 r expOut;
#X obj 843 609 expr_sel;
#X obj 938 609 expr_sel;
#X obj 341 663 r fx2;
#X obj 793 681 t b f;
#X msg 1284 644 0;
#X msg 1253 644 1;
#X msg 1378 644 0;
#X msg 1347 644 1;
#X msg 1474 644 0;
#X msg 1441 644 1;
#X obj 1253 664 tgl 15 0 empty empty empty 17 7 0 10 -262144 -1 -1
0 1;
#X obj 1347 664 tgl 15 0 empty empty empty 17 7 0 10 -262144 -1 -1
0 1;
#X obj 1441 664 tgl 15 0 empty empty empty 17 7 0 10 -262144 -1 -1
0 1;
#X obj 1423 736 tgl 15 0 empty empty empty 17 7 0 10 -262144 -1 -1
0 1;
#X obj 1441 679 t b f;
#X obj 1423 698 +;
#X obj 1423 717 > 1;
#X obj 1391 679 t b f;
#X obj 1329 736 tgl 15 0 empty empty empty 17 7 0 10 -262144 -1 -1
0 1;
#X obj 1347 679 t b f;
#X obj 1329 698 +;
#X obj 1329 717 > 1;
#X obj 1297 679 t b f;
#X obj 1235 736 tgl 15 0 empty empty empty 17 7 0 10 -262144 -1 -1
0 1;
#X obj 1253 679 t b f;
#X obj 1235 698 +;
#X obj 1235 717 > 1;
#X obj 1203 679 t b f;
#X obj 1253 586 r btn2;
#X obj 1347 586 r btn3;
#X obj 1441 586 r btn4;
#X obj 1284 626 r expOut;
#X obj 1253 605 expr_sel;
#X obj 1347 605 expr_sel;
#X obj 1441 605 expr_sel;
#X msg 1183 644 0;
#X msg 1152 644 1;
#X obj 1152 664 tgl 15 0 empty empty empty 17 7 0 10 -262144 -1 -1
0 1;
#X obj 1134 736 tgl 15 0 empty empty empty 17 7 0 10 -262144 -1 -1
0 1;
#X obj 1152 679 t b f;
#X obj 1134 698 +;
#X obj 1134 717 > 1;
#X obj 1102 679 t b f;
#X obj 1152 606 expr_sel;
#X obj 1152 587 r btn1;
#X obj 1152 625 r expIn;
#X obj 1360 625 r fx3;
#X obj 1102 660 r fx3;
#X obj 507 628 r fx2, f 6;
#X obj 447 628 r expOut;
#X obj 569 662 r fx2.1;
#X obj 718 628 r fx2.1;
#X obj 938 628 r fx2.2;
#X obj 789 662 r fx2.2;
#X obj 1059 302 loadbang;
#X obj 1224 321 tgl 15 0 empty empty empty 17 7 0 10 -262144 -1 -1
1 1;
#X obj 1328 321 tgl 15 0 empty empty empty 17 7 0 10 -262144 -1 -1
1 1;
#X obj 1430 321 tgl 15 0 empty empty empty 17 7 0 10 -262144 -1 -1
1 1;
#X obj 1119 321 tgl 15 0 empty empty empty 17 7 0 10 -262144 -1 -1
1 1;
#X msg 1151 302 1;
#X msg 1224 302 0;
#X msg 1258 302 1;
#X msg 1328 302 0;
#X msg 1359 302 1;
#X msg 1430 302 0;
#X msg 1463 302 1;
#X obj 1119 287 tgl 15 0 empty empty empty 17 7 0 10 -262144 -1 -1
0 1;
#X obj 1224 287 tgl 15 0 empty empty empty 17 7 0 10 -262144 -1 -1
0 1;
#X obj 1328 287 tgl 15 0 empty empty empty 17 7 0 10 -262144 -1 -1
0 1;
#X obj 1430 287 tgl 15 0 empty empty empty 17 7 0 10 -262144 -1 -1
0 1;
#X msg 1119 302 0;
#X obj 1119 200 r btn1;
#X obj 1224 198 r btn2;
#X obj 1328 198 r btn3;
#X obj 1430 198 r btn4;
#X obj 1181 302 sel 0;
#X obj 1224 268 spigot;
#X obj 1119 253 tgl 15 0 empty empty empty 17 7 0 10 -262144 -1 -1
0 1;
#X obj 1328 268 spigot;
#X obj 1430 268 spigot;
#X obj 1119 336 s exp_desel1;
#X obj 1224 336 s exp_desel2;
#X obj 1328 336 s exp_desel3;
#X obj 1430 336 s exp_desel4;
#X obj 1119 437 sel 0;
#X obj 1224 437 sel 0;
#X obj 1328 437 sel 0;
#X obj 1430 437 sel 0;
#X msg 1119 456 1;
#X msg 1224 456 2;
#X msg 1329 456 3;
#X msg 1430 456 4;
#X obj 1119 418 spigot;
#X obj 1224 418 spigot;
#X obj 1328 418 spigot;
#X obj 1430 418 spigot;
#X obj 1256 399 + 1;
#X obj 1256 380 * -1;
#X msg 1288 380 0;
#X obj 1296 361 loadbang;
#X obj 1256 361 r fx4;
#X obj 384 478 s exp_sel1/1;
#X obj 485 478 s exp_sel2/1;
#X obj 579 478 s exp_sel3/1;
#X obj 673 478 s exp_sel4/1;
#X obj 373 753 s exp_sel1/2;
#X obj 475 753 s exp_sel2/2;
#X obj 605 753 s exp_sel3/2.1;
#X obj 700 753 s exp_sel4/2.1;
#X obj 825 753 s exp_sel3/2.2;
#X obj 920 753 s exp_sel4/2.2;
#X obj 1134 751 s exp_sel1/3;
#X obj 1235 751 s exp_sel2/3;
#X obj 1329 751 s exp_sel3/3;
#X obj 1423 751 s exp_sel4/3;
#X text 137 231 to control rate;
#X text 116 215 convert audio rate;
#X text 130 193 read Analog In 0;
#X text 81 372 send value to [encoder];
#X obj 79 710 sel 1, f 9;
#X obj 79 695 tgl 15 0 empty empty empty 17 7 0 10 -262144 -1 -1 0
1;
#X obj 139 729 bng 15 250 50 0 empty empty empty 17 7 0 10 -262144
-1 -1;
#X obj 79 729 bng 15 250 50 0 empty empty empty 17 7 0 10 -262144 -1
-1;
#X obj 79 744 s expIn;
#X obj 139 744 s expOut;
#X obj 151 603 r btn1;
#X obj 79 450 r bypass;
#X obj 79 478 sel 0;
#X obj 79 559 spigot;
#X obj 125 541 r fx4;
#X obj 186 487 r expIn;
#X obj 118 487 r expOut;
#X obj 118 525 tgl 15 0 empty empty empty 17 7 0 10 -262144 -1 -1 0
1;
#X obj 79 540 spigot;
#X msg 118 506 0;
#X msg 186 506 1;
#X text 168 725 button release;
#X text 31 601 receive button 1;
#X text 156 696 activate/deactivate;
#X text 159 710 expression mode on;
#X text 761 335 set all the others to 0;
#X text 753 212 receive buttons to select;
#X text 757 256 let through selection;
#X text 755 227 which parameter is controlled;
#X text 743 405 add up values with the corresponding;
#X text 759 422 fx select value (0 or 1);
#X text 746 450 output 1 if value >1 and 0 if <1;
#X text 768 480 send value to [encoder];
#X text 391 554 Tape Delay expression select;
#X text 1153 558 Freeverb expression select;
#X text 403 182 Scanner Vibrato expression select;
#X text 1491 357 send blocked value to;
#X text 1493 373 [encoder] and [oled];
#X text 1344 479 send blocked value;
#X text 1346 495 number to [gui];
#X text 1198 148 Block the selected encoder value from;
#X text 1198 168 being sent to the GUI and OLED display;
#X text 1502 315 set all the others to 1;
#X text 1493 197 receive buttons to deselect;
#X text 76 70 Read and route expression pedal signal connected to Analog
In 0, f 67;
#X text 76 94 Detailed information on reading analog inputs with Bela
at:, f 67;
#X text 76 110 https://learn.bela.io/tutorials/pure-data/connecting/analog-input/
, f 67;
#X text 759 318 if a value is set to 1;
#X text 1500 298 if a value is set to 0;
#X obj 188 274 r expIn;
#X obj 120 274 r expOut;
#X obj 120 312 tgl 15 0 empty empty empty 17 7 0 10 -262144 -1 -1 0
1;
#X obj 81 327 spigot;
#X msg 120 293 0;
#X msg 188 293 1;
#X obj 198 603 r fx4;
#X obj 198 623 * -1;
#X obj 198 642 + 1;
#X obj 151 676 spigot;
#X obj 223 643 loadbang;
#X obj 198 661 tgl 15 0 empty empty empty 17 7 0 10 -262144 -1 -1 1
1;
#X text 756 272 only if expression mode is in;
#X text 143 460 only for looper (fx4);
#X text 144 446 exit rec mode;
#X text 22 645 block if fx4 is selected;
#X obj 1249 475 s exp_to_gui;
#X obj 1068 157 r fx4;
#X obj 1068 177 * -1;
#X obj 1068 196 + 1;
#X obj 1119 230 spigot;
#X obj 1007 196 loadbang;
#X obj 1068 215 tgl 15 0 empty empty empty 17 7 0 10 -262144 -1 -1
1 1;
#X connect 0 0 7 0;
#X connect 0 0 8 0;
#X connect 0 0 39 0;
#X connect 1 0 6 0;
#X connect 2 0 6 0;
#X connect 2 0 8 0;
#X connect 2 0 39 0;
#X connect 3 0 7 0;
#X connect 4 0 7 0;
#X connect 4 0 6 0;
#X connect 4 0 39 0;
#X connect 5 0 8 0;
#X connect 6 0 20 0;
#X connect 7 0 15 0;
#X connect 8 0 10 0;
#X connect 9 0 212 0;
#X connect 10 0 11 0;
#X connect 10 1 11 1;
#X connect 11 0 12 0;
#X connect 12 0 9 0;
#X connect 13 0 11 0;
#X connect 13 1 11 0;
#X connect 14 0 211 0;
#X connect 15 0 16 0;
#X connect 15 1 16 1;
#X connect 16 0 17 0;
#X connect 17 0 14 0;
#X connect 18 0 16 0;
#X connect 18 1 16 0;
#X connect 19 0 210 0;
#X connect 20 0 21 0;
#X connect 20 1 21 1;
#X connect 21 0 22 0;
#X connect 22 0 19 0;
#X connect 23 0 21 0;
#X connect 23 1 21 0;
#X connect 24 0 0 0;
#X connect 24 0 2 0;
#X connect 24 0 4 0;
#X connect 25 0 13 0;
#X connect 25 0 18 0;
#X connect 25 0 23 0;
#X connect 25 0 44 0;
#X connect 26 0 32 0;
#X connect 27 0 33 0;
#X connect 28 0 34 0;
#X connect 29 0 35 0;
#X connect 30 0 0 0;
#X connect 30 0 2 0;
#X connect 30 0 4 0;
#X connect 32 0 1 0;
#X connect 32 0 0 0;
#X connect 33 0 3 0;
#X connect 33 0 2 0;
#X connect 34 0 5 0;
#X connect 34 0 4 0;
#X connect 35 0 36 0;
#X connect 36 0 275 0;
#X connect 37 0 6 0;
#X connect 37 0 7 0;
#X connect 37 0 8 0;
#X connect 38 0 39 0;
#X connect 39 0 41 0;
#X connect 40 0 209 0;
#X connect 41 0 42 0;
#X connect 41 1 42 1;
#X connect 42 0 43 0;
#X connect 43 0 40 0;
#X connect 44 0 42 0;
#X connect 44 1 42 0;
#X connect 45 0 38 0;
#X connect 45 0 37 0;
#X connect 46 0 45 0;
#X connect 47 0 39 0;
#X connect 48 0 55 0;
#X connect 48 0 56 0;
#X connect 48 0 81 0;
#X connect 48 0 94 0;
#X connect 48 0 95 0;
#X connect 49 0 54 0;
#X connect 50 0 54 0;
#X connect 50 0 56 0;
#X connect 50 0 81 0;
#X connect 50 0 95 0;
#X connect 51 0 55 0;
#X connect 52 0 55 0;
#X connect 52 0 54 0;
#X connect 52 0 81 0;
#X connect 53 0 56 0;
#X connect 54 0 68 0;
#X connect 55 0 63 0;
#X connect 56 0 58 0;
#X connect 57 0 216 0;
#X connect 58 0 59 0;
#X connect 58 1 59 1;
#X connect 59 0 60 0;
#X connect 60 0 57 0;
#X connect 61 0 59 0;
#X connect 61 1 59 0;
#X connect 62 0 215 0;
#X connect 63 0 64 0;
#X connect 63 1 64 1;
#X connect 64 0 65 0;
#X connect 65 0 62 0;
#X connect 66 0 64 0;
#X connect 66 1 64 0;
#X connect 67 0 214 0;
#X connect 68 0 69 0;
#X connect 68 1 69 1;
#X connect 69 0 70 0;
#X connect 70 0 67 0;
#X connect 71 0 69 0;
#X connect 71 1 69 0;
#X connect 72 0 76 0;
#X connect 73 0 77 0;
#X connect 74 0 78 0;
#X connect 75 0 50 0;
#X connect 75 0 52 0;
#X connect 76 0 49 0;
#X connect 76 0 48 0;
#X connect 77 0 51 0;
#X connect 77 0 50 0;
#X connect 78 0 53 0;
#X connect 78 0 52 0;
#X connect 79 0 54 0;
#X connect 79 0 55 0;
#X connect 79 0 56 0;
#X connect 79 0 94 0;
#X connect 79 0 95 0;
#X connect 80 0 81 0;
#X connect 81 0 83 0;
#X connect 82 0 213 0;
#X connect 83 0 84 0;
#X connect 83 1 84 1;
#X connect 84 0 85 0;
#X connect 85 0 82 0;
#X connect 86 0 84 0;
#X connect 86 1 84 0;
#X connect 87 0 80 0;
#X connect 87 0 79 0;
#X connect 88 0 87 0;
#X connect 89 0 81 0;
#X connect 90 0 54 0;
#X connect 90 0 81 0;
#X connect 90 0 95 0;
#X connect 91 0 94 0;
#X connect 92 0 94 0;
#X connect 92 0 81 0;
#X connect 92 0 54 0;
#X connect 93 0 95 0;
#X connect 94 0 102 0;
#X connect 95 0 97 0;
#X connect 96 0 218 0;
#X connect 97 0 98 0;
#X connect 97 1 98 1;
#X connect 98 0 99 0;
#X connect 99 0 96 0;
#X connect 100 0 98 0;
#X connect 100 1 98 0;
#X connect 101 0 217 0;
#X connect 102 0 103 0;
#X connect 102 1 103 1;
#X connect 103 0 104 0;
#X connect 104 0 101 0;
#X connect 105 0 108 0;
#X connect 106 0 109 0;
#X connect 107 0 90 0;
#X connect 107 0 92 0;
#X connect 108 0 91 0;
#X connect 108 0 90 0;
#X connect 109 0 93 0;
#X connect 109 0 92 0;
#X connect 110 0 71 0;
#X connect 110 0 86 0;
#X connect 111 1 103 0;
#X connect 112 0 119 0;
#X connect 112 0 120 0;
#X connect 112 0 145 0;
#X connect 113 0 118 0;
#X connect 114 0 118 0;
#X connect 114 0 120 0;
#X connect 114 0 145 0;
#X connect 115 0 119 0;
#X connect 116 0 119 0;
#X connect 116 0 118 0;
#X connect 116 0 145 0;
#X connect 117 0 120 0;
#X connect 118 0 132 0;
#X connect 119 0 127 0;
#X connect 120 0 122 0;
#X connect 121 0 222 0;
#X connect 122 0 123 0;
#X connect 122 1 123 1;
#X connect 123 0 124 0;
#X connect 124 0 121 0;
#X connect 125 0 123 0;
#X connect 125 1 123 0;
#X connect 126 0 221 0;
#X connect 127 0 128 0;
#X connect 127 1 128 1;
#X connect 128 0 129 0;
#X connect 129 0 126 0;
#X connect 130 0 128 0;
#X connect 130 1 128 0;
#X connect 131 0 220 0;
#X connect 132 0 133 0;
#X connect 132 1 133 1;
#X connect 133 0 134 0;
#X connect 134 0 131 0;
#X connect 135 0 133 0;
#X connect 135 1 133 0;
#X connect 136 0 140 0;
#X connect 137 0 141 0;
#X connect 138 0 142 0;
#X connect 139 0 112 0;
#X connect 139 0 114 0;
#X connect 139 0 116 0;
#X connect 140 0 113 0;
#X connect 140 0 112 0;
#X connect 141 0 115 0;
#X connect 141 0 114 0;
#X connect 142 0 117 0;
#X connect 142 0 116 0;
#X connect 143 0 118 0;
#X connect 143 0 119 0;
#X connect 143 0 120 0;
#X connect 144 0 145 0;
#X connect 145 0 147 0;
#X connect 146 0 219 0;
#X connect 147 0 148 0;
#X connect 147 1 148 1;
#X connect 148 0 149 0;
#X connect 149 0 146 0;
#X connect 150 0 148 0;
#X connect 150 1 148 0;
#X connect 151 0 144 0;
#X connect 151 0 143 0;
#X connect 152 0 151 0;
#X connect 153 0 145 0;
#X connect 154 0 112 0;
#X connect 154 0 114 0;
#X connect 154 0 116 0;
#X connect 155 0 125 0;
#X connect 155 0 130 0;
#X connect 155 0 135 0;
#X connect 155 0 150 0;
#X connect 156 0 48 0;
#X connect 157 0 48 0;
#X connect 158 0 66 0;
#X connect 158 0 61 0;
#X connect 159 0 50 0;
#X connect 159 0 52 0;
#X connect 160 0 92 0;
#X connect 160 0 90 0;
#X connect 161 0 111 0;
#X connect 161 0 100 0;
#X connect 162 0 166 0;
#X connect 162 0 165 0;
#X connect 162 0 164 0;
#X connect 162 0 163 0;
#X connect 163 0 189 0;
#X connect 163 0 201 0;
#X connect 164 0 190 0;
#X connect 164 0 202 0;
#X connect 165 0 191 0;
#X connect 165 0 203 0;
#X connect 166 0 188 0;
#X connect 166 0 200 0;
#X connect 167 0 164 0;
#X connect 167 0 165 0;
#X connect 167 0 163 0;
#X connect 168 0 163 0;
#X connect 169 0 164 0;
#X connect 169 0 165 0;
#X connect 169 0 166 0;
#X connect 170 0 164 0;
#X connect 171 0 163 0;
#X connect 171 0 165 0;
#X connect 171 0 166 0;
#X connect 172 0 165 0;
#X connect 173 0 164 0;
#X connect 173 0 163 0;
#X connect 173 0 166 0;
#X connect 174 0 167 0;
#X connect 174 0 178 0;
#X connect 174 0 183 0;
#X connect 175 0 168 0;
#X connect 175 0 169 0;
#X connect 176 0 170 0;
#X connect 176 0 171 0;
#X connect 177 0 172 0;
#X connect 177 0 173 0;
#X connect 178 0 166 0;
#X connect 179 0 174 0;
#X connect 179 0 292 0;
#X connect 180 0 184 0;
#X connect 181 0 186 0;
#X connect 182 0 187 0;
#X connect 183 0 166 0;
#X connect 184 0 175 0;
#X connect 185 0 174 0;
#X connect 185 0 184 1;
#X connect 185 0 186 1;
#X connect 185 0 187 1;
#X connect 186 0 176 0;
#X connect 187 0 177 0;
#X connect 192 0 196 0;
#X connect 193 0 197 0;
#X connect 194 0 198 0;
#X connect 195 0 199 0;
#X connect 196 0 288 0;
#X connect 197 0 288 0;
#X connect 198 0 288 0;
#X connect 199 0 288 0;
#X connect 200 0 192 0;
#X connect 201 0 193 0;
#X connect 202 0 194 0;
#X connect 203 0 195 0;
#X connect 204 0 203 1;
#X connect 204 0 200 1;
#X connect 204 0 202 1;
#X connect 204 0 201 1;
#X connect 205 0 204 0;
#X connect 206 0 205 0;
#X connect 207 0 206 0;
#X connect 208 0 205 0;
#X connect 227 0 230 0;
#X connect 227 1 229 0;
#X connect 228 0 227 0;
#X connect 229 0 232 0;
#X connect 230 0 231 0;
#X connect 233 0 281 0;
#X connect 234 0 235 0;
#X connect 235 0 236 0;
#X connect 236 0 228 0;
#X connect 237 0 236 1;
#X connect 238 0 243 0;
#X connect 239 0 242 0;
#X connect 240 0 241 1;
#X connect 241 0 236 0;
#X connect 242 0 240 0;
#X connect 243 0 240 0;
#X connect 272 0 277 0;
#X connect 273 0 276 0;
#X connect 274 0 275 1;
#X connect 275 0 31 0;
#X connect 276 0 274 0;
#X connect 277 0 274 0;
#X connect 278 0 279 0;
#X connect 279 0 280 0;
#X connect 280 0 283 0;
#X connect 281 0 228 0;
#X connect 282 0 283 0;
#X connect 283 0 281 1;
#X connect 289 0 290 0;
#X connect 290 0 291 0;
#X connect 291 0 294 0;
#X connect 292 0 185 0;
#X connect 293 0 294 0;
#X connect 294 0 292 1;
