#N canvas 0 50 245 223 12;
#X obj 42 77 r expIn;
#X obj 101 77 r expOut;
#X obj 62 142 spigot;
#X obj 101 115 tgl 15 0 empty empty empty 17 7 0 10 -262144 -1 -1 0
1;
#X msg 101 96 0;
#X msg 69 96 1;
#X obj 62 166 outlet;
#X obj 62 118 inlet;
#X text 36 48 on expression select, f 21;
#X text 36 32 Signal gate depending;
#X connect 0 0 5 0;
#X connect 1 0 4 0;
#X connect 2 0 6 0;
#X connect 3 0 2 1;
#X connect 4 0 3 0;
#X connect 5 0 3 0;
#X connect 7 0 2 0;
