#N canvas 450 172 483 566 12;
#N canvas 821 265 811 346 combfilters-left1 0;
#X obj 68 246 +~;
#X obj 87 205 *~ 0.3;
#X obj 87 183 lop~ 1000;
#X obj 238 246 +~;
#X obj 257 205 *~ 0.3;
#X obj 257 183 lop~ 1000;
#X obj 427 205 *~ 0.3;
#X obj 427 183 lop~ 1000;
#X obj 408 246 +~;
#X obj 597 205 *~ 0.3;
#X obj 597 183 lop~ 1000;
#X obj 578 246 +~;
#X obj 87 139 delread~ \$0-comb1left;
#X obj 257 139 delread~ \$0-comb2left;
#X obj 427 139 delread~ \$0-comb3left;
#X obj 597 139 delread~ \$0-comb4left;
#X obj 68 269 delwrite~ \$0-comb1left 100;
#X obj 237 291 delwrite~ \$0-comb2left 100;
#X obj 407 267 delwrite~ \$0-comb3left 100;
#X obj 577 290 delwrite~ \$0-comb4left 100;
#X obj 138 161 r \$0-frequency;
#X obj 308 161 r \$0-frequency;
#X obj 478 161 r \$0-frequency;
#X obj 648 161 r \$0-frequency;
#X obj 296 227 inlet~;
#X obj 665 200 outlet~;
#X obj 12 188 clip 0 0.99;
#X obj 12 166 r \$0-room;
#X obj 114 78 samplerate~;
#X obj 87 95 /;
#X obj 87 56 t f b;
#X obj 87 117 * 1000;
#X obj 87 12 loadbang;
#X msg 87 34 1116;
#X obj 284 78 samplerate~;
#X obj 257 95 /;
#X obj 257 56 t f b;
#X obj 257 117 * 1000;
#X obj 257 12 loadbang;
#X msg 257 34 1188;
#X obj 454 78 samplerate~;
#X obj 427 95 /;
#X obj 427 56 t f b;
#X obj 427 117 * 1000;
#X obj 427 12 loadbang;
#X obj 624 78 samplerate~;
#X obj 597 95 /;
#X obj 597 56 t f b;
#X obj 597 117 * 1000;
#X obj 597 12 loadbang;
#X msg 427 34 1277;
#X msg 597 34 1356;
#X connect 0 0 16 0;
#X connect 1 0 0 1;
#X connect 2 0 1 0;
#X connect 2 0 25 0;
#X connect 3 0 17 0;
#X connect 4 0 3 1;
#X connect 5 0 4 0;
#X connect 5 0 25 0;
#X connect 6 0 8 1;
#X connect 7 0 6 0;
#X connect 7 0 25 0;
#X connect 8 0 18 0;
#X connect 9 0 11 1;
#X connect 10 0 9 0;
#X connect 10 0 25 0;
#X connect 11 0 19 0;
#X connect 12 0 2 0;
#X connect 13 0 5 0;
#X connect 14 0 7 0;
#X connect 15 0 10 0;
#X connect 20 0 2 1;
#X connect 21 0 5 1;
#X connect 22 0 7 1;
#X connect 23 0 10 1;
#X connect 24 0 0 0;
#X connect 24 0 3 0;
#X connect 24 0 8 0;
#X connect 24 0 11 0;
#X connect 26 0 1 1;
#X connect 26 0 4 1;
#X connect 26 0 6 1;
#X connect 26 0 9 1;
#X connect 27 0 26 0;
#X connect 28 0 29 1;
#X connect 29 0 31 0;
#X connect 30 0 29 0;
#X connect 30 1 28 0;
#X connect 31 0 12 0;
#X connect 32 0 33 0;
#X connect 33 0 30 0;
#X connect 34 0 35 1;
#X connect 35 0 37 0;
#X connect 36 0 35 0;
#X connect 36 1 34 0;
#X connect 37 0 13 0;
#X connect 38 0 39 0;
#X connect 39 0 36 0;
#X connect 40 0 41 1;
#X connect 41 0 43 0;
#X connect 42 0 41 0;
#X connect 42 1 40 0;
#X connect 43 0 14 0;
#X connect 44 0 50 0;
#X connect 45 0 46 1;
#X connect 46 0 48 0;
#X connect 47 0 46 0;
#X connect 47 1 45 0;
#X connect 48 0 15 0;
#X connect 49 0 51 0;
#X connect 50 0 42 0;
#X connect 51 0 47 0;
#X restore 78 229 pd combfilters-left1;
#N canvas 562 74 448 547 diffusor-left 0;
#X obj 27 156 *~ 0.5;
#X obj 12 178 +~;
#X obj 42 178 -~;
#X obj 12 112 inlet~;
#X obj 57 244 *~ 0.5;
#X obj 42 266 +~;
#X obj 72 266 -~;
#X obj 87 332 *~ 0.5;
#X obj 72 354 +~;
#X obj 102 354 -~;
#X obj 117 420 *~ 0.5;
#X obj 102 445 +~;
#X obj 132 445 -~;
#X obj 132 511 outlet~;
#X obj 132 489 hip~ 5;
#X obj 27 134 delread~ \$0-allpass1left;
#X obj 12 200 delwrite~ \$0-allpass1left 40;
#X obj 57 222 delread~ \$0-allpass2left;
#X obj 42 288 delwrite~ \$0-allpass2left 40;
#X obj 87 310 delread~ \$0-allpass3left;
#X obj 72 376 delwrite~ \$0-allpass3left 40;
#X obj 117 398 delread~ \$0-allpass4left;
#X obj 102 467 delwrite~ \$0-allpass4left 40;
#X obj 212 78 samplerate~;
#X obj 185 95 /;
#X obj 185 56 t f b;
#X obj 185 117 * 1000;
#X obj 185 12 loadbang;
#X msg 185 34 225;
#X obj 262 166 samplerate~;
#X obj 235 183 /;
#X obj 235 144 t f b;
#X obj 235 205 * 1000;
#X obj 235 100 loadbang;
#X msg 235 122 556;
#X obj 312 254 samplerate~;
#X obj 285 271 /;
#X obj 285 232 t f b;
#X obj 285 293 * 1000;
#X obj 285 188 loadbang;
#X msg 285 210 441;
#X obj 362 342 samplerate~;
#X obj 335 359 /;
#X obj 335 320 t f b;
#X obj 335 381 * 1000;
#X obj 335 276 loadbang;
#X msg 335 298 341;
#X connect 0 0 1 1;
#X connect 1 0 16 0;
#X connect 2 0 5 0;
#X connect 2 0 6 1;
#X connect 3 0 1 0;
#X connect 3 0 2 1;
#X connect 4 0 5 1;
#X connect 5 0 18 0;
#X connect 6 0 8 0;
#X connect 6 0 9 1;
#X connect 7 0 8 1;
#X connect 8 0 20 0;
#X connect 9 0 11 0;
#X connect 9 0 12 1;
#X connect 10 0 11 1;
#X connect 11 0 22 0;
#X connect 12 0 14 0;
#X connect 14 0 13 0;
#X connect 15 0 0 0;
#X connect 15 0 2 0;
#X connect 17 0 4 0;
#X connect 17 0 6 0;
#X connect 19 0 7 0;
#X connect 19 0 9 0;
#X connect 21 0 10 0;
#X connect 21 0 12 0;
#X connect 23 0 24 1;
#X connect 24 0 26 0;
#X connect 25 0 24 0;
#X connect 25 1 23 0;
#X connect 26 0 15 0;
#X connect 27 0 28 0;
#X connect 28 0 25 0;
#X connect 29 0 30 1;
#X connect 30 0 32 0;
#X connect 31 0 30 0;
#X connect 31 1 29 0;
#X connect 32 0 17 0;
#X connect 33 0 34 0;
#X connect 34 0 31 0;
#X connect 35 0 36 1;
#X connect 36 0 38 0;
#X connect 37 0 36 0;
#X connect 37 1 35 0;
#X connect 38 0 19 0;
#X connect 39 0 40 0;
#X connect 40 0 37 0;
#X connect 41 0 42 1;
#X connect 42 0 44 0;
#X connect 43 0 42 0;
#X connect 43 1 41 0;
#X connect 44 0 21 0;
#X connect 45 0 46 0;
#X connect 46 0 43 0;
#X restore 59 313 pd diffusor-left;
#X obj 150 193 *~ 0.015;
#X obj 150 149 inlet~;
#N canvas 0 22 207 230 room 0;
#X obj 32 35 inlet;
#X obj 32 63 * 0.28;
#X obj 32 94 + 0.7;
#X obj 32 160 outlet;
#X text 80 65 scaleroom;
#X text 76 94 offsetroom;
#X obj 47 126 s \$0-room;
#X connect 0 0 1 0;
#X connect 1 0 2 0;
#X connect 2 0 3 0;
#X connect 2 0 6 0;
#X restore 202 171 pd room;
#N canvas 684 70 414 349 frequency 0;
#X obj 41 208 samplerate~;
#X obj 14 54 inlet;
#X obj 14 186 t f b;
#X obj 14 225 *;
#X obj 24 269 s \$0-frequency;
#X obj 14 291 outlet;
#X obj 14 98 * 0.4;
#X obj 14 142 -;
#X obj 14 164 abs;
#X obj 14 247 * 0.5;
#X obj 14 76 clip 0 2.4;
#X msg 14 120 1 \$1;
#X text 64 291 for [lop~];
#X text 54 98 scaledamp;
#X connect 0 0 3 1;
#X connect 1 0 10 0;
#X connect 2 0 3 0;
#X connect 2 1 0 0;
#X connect 3 0 9 0;
#X connect 6 0 11 0;
#X connect 7 0 8 0;
#X connect 8 0 2 0;
#X connect 9 0 5 0;
#X connect 9 0 4 0;
#X connect 10 0 6 0;
#X connect 11 0 7 0;
#X restore 276 194 pd frequency;
#N canvas 429 411 766 293 combfilters-right1 0;
#X obj 72 227 +~;
#X obj 87 205 *~ 0.3;
#X obj 87 183 lop~ 1000;
#X obj 242 227 +~;
#X obj 257 205 *~ 0.3;
#X obj 257 183 lop~ 1000;
#X obj 427 205 *~ 0.3;
#X obj 427 183 lop~ 1000;
#X obj 412 227 +~;
#X obj 597 205 *~ 0.3;
#X obj 597 183 lop~ 1000;
#X obj 582 227 +~;
#X obj 138 161 r \$0-frequency;
#X obj 308 161 r \$0-frequency;
#X obj 478 161 r \$0-frequency;
#X obj 648 161 r \$0-frequency;
#X obj 12 210 inlet~;
#X obj 665 200 outlet~;
#X obj 12 188 clip 0 0.99;
#X obj 12 166 r \$0-room;
#X obj 114 78 samplerate~;
#X obj 87 95 /;
#X obj 87 56 t f b;
#X obj 87 117 * 1000;
#X obj 87 12 loadbang;
#X obj 284 78 samplerate~;
#X obj 257 95 /;
#X obj 257 56 t f b;
#X obj 257 117 * 1000;
#X obj 257 12 loadbang;
#X obj 454 78 samplerate~;
#X obj 427 95 /;
#X obj 427 56 t f b;
#X obj 427 117 * 1000;
#X obj 427 12 loadbang;
#X obj 624 78 samplerate~;
#X obj 597 95 /;
#X obj 597 56 t f b;
#X obj 597 117 * 1000;
#X obj 597 12 loadbang;
#X obj 72 249 delwrite~ \$0-comb1right 100;
#X obj 242 249 delwrite~ \$0-comb2right 100;
#X obj 412 249 delwrite~ \$0-comb3right 100;
#X obj 582 249 delwrite~ \$0-comb4right 100;
#X obj 87 139 delread~ \$0-comb1right;
#X obj 257 139 delread~ \$0-comb2right;
#X obj 427 139 delread~ \$0-comb3right;
#X obj 597 139 delread~ \$0-comb4right;
#X msg 87 34 1139;
#X msg 257 34 1211;
#X msg 427 34 1300;
#X msg 597 34 1379;
#X connect 0 0 40 0;
#X connect 1 0 0 1;
#X connect 2 0 1 0;
#X connect 2 0 17 0;
#X connect 3 0 41 0;
#X connect 4 0 3 1;
#X connect 5 0 4 0;
#X connect 5 0 17 0;
#X connect 6 0 8 1;
#X connect 7 0 6 0;
#X connect 7 0 17 0;
#X connect 8 0 42 0;
#X connect 9 0 11 1;
#X connect 10 0 9 0;
#X connect 10 0 17 0;
#X connect 11 0 43 0;
#X connect 12 0 2 1;
#X connect 13 0 5 1;
#X connect 14 0 7 1;
#X connect 15 0 10 1;
#X connect 16 0 0 0;
#X connect 16 0 3 0;
#X connect 16 0 8 0;
#X connect 16 0 11 0;
#X connect 18 0 1 1;
#X connect 18 0 4 1;
#X connect 18 0 6 1;
#X connect 18 0 9 1;
#X connect 19 0 18 0;
#X connect 20 0 21 1;
#X connect 21 0 23 0;
#X connect 22 0 21 0;
#X connect 22 1 20 0;
#X connect 23 0 44 0;
#X connect 24 0 48 0;
#X connect 25 0 26 1;
#X connect 26 0 28 0;
#X connect 27 0 26 0;
#X connect 27 1 25 0;
#X connect 28 0 45 0;
#X connect 29 0 49 0;
#X connect 30 0 31 1;
#X connect 31 0 33 0;
#X connect 32 0 31 0;
#X connect 32 1 30 0;
#X connect 33 0 46 0;
#X connect 34 0 50 0;
#X connect 35 0 36 1;
#X connect 36 0 38 0;
#X connect 37 0 36 0;
#X connect 37 1 35 0;
#X connect 38 0 47 0;
#X connect 39 0 51 0;
#X connect 44 0 2 0;
#X connect 45 0 5 0;
#X connect 46 0 7 0;
#X connect 47 0 10 0;
#X connect 48 0 22 0;
#X connect 49 0 27 0;
#X connect 50 0 32 0;
#X connect 51 0 37 0;
#X restore 229 229 pd combfilters-right1;
#N canvas 429 411 766 293 combfilters-left2 0;
#X obj 72 227 +~;
#X obj 87 205 *~ 0.3;
#X obj 87 183 lop~ 1000;
#X obj 242 227 +~;
#X obj 257 205 *~ 0.3;
#X obj 257 183 lop~ 1000;
#X obj 427 205 *~ 0.3;
#X obj 427 183 lop~ 1000;
#X obj 412 227 +~;
#X obj 597 205 *~ 0.3;
#X obj 597 183 lop~ 1000;
#X obj 582 227 +~;
#X obj 138 161 r \$0-frequency;
#X obj 308 161 r \$0-frequency;
#X obj 478 161 r \$0-frequency;
#X obj 648 161 r \$0-frequency;
#X obj 12 210 inlet~;
#X obj 665 200 outlet~;
#X obj 12 188 clip 0 0.99;
#X obj 12 166 r \$0-room;
#X obj 114 78 samplerate~;
#X obj 87 95 /;
#X obj 87 56 t f b;
#X obj 87 117 * 1000;
#X obj 87 12 loadbang;
#X obj 284 78 samplerate~;
#X obj 257 95 /;
#X obj 257 56 t f b;
#X obj 257 117 * 1000;
#X obj 257 12 loadbang;
#X obj 454 78 samplerate~;
#X obj 427 95 /;
#X obj 427 56 t f b;
#X obj 427 117 * 1000;
#X obj 427 12 loadbang;
#X obj 624 78 samplerate~;
#X obj 597 95 /;
#X obj 597 56 t f b;
#X obj 597 117 * 1000;
#X obj 597 12 loadbang;
#X msg 87 34 1422;
#X msg 257 34 1491;
#X msg 427 34 1557;
#X msg 597 34 1617;
#X obj 87 139 delread~ \$0-comb5left;
#X obj 72 249 delwrite~ \$0-comb5left 100;
#X obj 242 249 delwrite~ \$0-comb6left 100;
#X obj 257 139 delread~ \$0-comb6left;
#X obj 427 139 delread~ \$0-comb7left;
#X obj 412 249 delwrite~ \$0-comb7left 100;
#X obj 582 249 delwrite~ \$0-comb8left 100;
#X obj 597 139 delread~ \$0-comb8left;
#X connect 0 0 45 0;
#X connect 1 0 0 1;
#X connect 2 0 1 0;
#X connect 2 0 17 0;
#X connect 3 0 46 0;
#X connect 4 0 3 1;
#X connect 5 0 4 0;
#X connect 5 0 17 0;
#X connect 6 0 8 1;
#X connect 7 0 6 0;
#X connect 7 0 17 0;
#X connect 8 0 49 0;
#X connect 9 0 11 1;
#X connect 10 0 9 0;
#X connect 10 0 17 0;
#X connect 11 0 50 0;
#X connect 12 0 2 1;
#X connect 13 0 5 1;
#X connect 14 0 7 1;
#X connect 15 0 10 1;
#X connect 16 0 0 0;
#X connect 16 0 3 0;
#X connect 16 0 8 0;
#X connect 16 0 11 0;
#X connect 18 0 1 1;
#X connect 18 0 4 1;
#X connect 18 0 6 1;
#X connect 18 0 9 1;
#X connect 19 0 18 0;
#X connect 20 0 21 1;
#X connect 21 0 23 0;
#X connect 22 0 21 0;
#X connect 22 1 20 0;
#X connect 23 0 44 0;
#X connect 24 0 40 0;
#X connect 25 0 26 1;
#X connect 26 0 28 0;
#X connect 27 0 26 0;
#X connect 27 1 25 0;
#X connect 28 0 47 0;
#X connect 29 0 41 0;
#X connect 30 0 31 1;
#X connect 31 0 33 0;
#X connect 32 0 31 0;
#X connect 32 1 30 0;
#X connect 33 0 48 0;
#X connect 34 0 42 0;
#X connect 35 0 36 1;
#X connect 36 0 38 0;
#X connect 37 0 36 0;
#X connect 37 1 35 0;
#X connect 38 0 51 0;
#X connect 39 0 43 0;
#X connect 40 0 22 0;
#X connect 41 0 27 0;
#X connect 42 0 32 0;
#X connect 43 0 37 0;
#X connect 44 0 2 0;
#X connect 47 0 5 0;
#X connect 48 0 7 0;
#X connect 51 0 10 0;
#X restore 77 256 pd combfilters-left2;
#X obj 59 291 +~;
#N canvas 429 411 766 293 combfilters-right2 0;
#X obj 72 227 +~;
#X obj 87 205 *~ 0.3;
#X obj 87 183 lop~ 1000;
#X obj 242 227 +~;
#X obj 257 205 *~ 0.3;
#X obj 257 183 lop~ 1000;
#X obj 427 205 *~ 0.3;
#X obj 427 183 lop~ 1000;
#X obj 412 227 +~;
#X obj 597 205 *~ 0.3;
#X obj 597 183 lop~ 1000;
#X obj 582 227 +~;
#X obj 138 161 r \$0-frequency;
#X obj 308 161 r \$0-frequency;
#X obj 478 161 r \$0-frequency;
#X obj 648 161 r \$0-frequency;
#X obj 12 210 inlet~;
#X obj 665 200 outlet~;
#X obj 12 188 clip 0 0.99;
#X obj 12 166 r \$0-room;
#X obj 114 78 samplerate~;
#X obj 87 95 /;
#X obj 87 56 t f b;
#X obj 87 117 * 1000;
#X obj 87 12 loadbang;
#X obj 284 78 samplerate~;
#X obj 257 95 /;
#X obj 257 56 t f b;
#X obj 257 117 * 1000;
#X obj 257 12 loadbang;
#X obj 454 78 samplerate~;
#X obj 427 95 /;
#X obj 427 56 t f b;
#X obj 427 117 * 1000;
#X obj 427 12 loadbang;
#X obj 624 78 samplerate~;
#X obj 597 95 /;
#X obj 597 56 t f b;
#X obj 597 117 * 1000;
#X obj 597 12 loadbang;
#X msg 87 34 1445;
#X msg 257 34 1514;
#X msg 427 34 1580;
#X msg 597 34 1640;
#X obj 87 139 delread~ \$0-comb5right;
#X obj 72 249 delwrite~ \$0-comb5right 100;
#X obj 242 249 delwrite~ \$0-comb6right 100;
#X obj 257 139 delread~ \$0-comb6right;
#X obj 427 139 delread~ \$0-comb7right;
#X obj 412 249 delwrite~ \$0-comb7right 100;
#X obj 582 249 delwrite~ \$0-comb8right 100;
#X obj 597 139 delread~ \$0-comb8right;
#X connect 0 0 45 0;
#X connect 1 0 0 1;
#X connect 2 0 1 0;
#X connect 2 0 17 0;
#X connect 3 0 46 0;
#X connect 4 0 3 1;
#X connect 5 0 4 0;
#X connect 5 0 17 0;
#X connect 6 0 8 1;
#X connect 7 0 6 0;
#X connect 7 0 17 0;
#X connect 8 0 49 0;
#X connect 9 0 11 1;
#X connect 10 0 9 0;
#X connect 10 0 17 0;
#X connect 11 0 50 0;
#X connect 12 0 2 1;
#X connect 13 0 5 1;
#X connect 14 0 7 1;
#X connect 15 0 10 1;
#X connect 16 0 0 0;
#X connect 16 0 3 0;
#X connect 16 0 8 0;
#X connect 16 0 11 0;
#X connect 18 0 1 1;
#X connect 18 0 4 1;
#X connect 18 0 6 1;
#X connect 18 0 9 1;
#X connect 19 0 18 0;
#X connect 20 0 21 1;
#X connect 21 0 23 0;
#X connect 22 0 21 0;
#X connect 22 1 20 0;
#X connect 23 0 44 0;
#X connect 24 0 40 0;
#X connect 25 0 26 1;
#X connect 26 0 28 0;
#X connect 27 0 26 0;
#X connect 27 1 25 0;
#X connect 28 0 47 0;
#X connect 29 0 41 0;
#X connect 30 0 31 1;
#X connect 31 0 33 0;
#X connect 32 0 31 0;
#X connect 32 1 30 0;
#X connect 33 0 48 0;
#X connect 34 0 42 0;
#X connect 35 0 36 1;
#X connect 36 0 38 0;
#X connect 37 0 36 0;
#X connect 37 1 35 0;
#X connect 38 0 51 0;
#X connect 39 0 43 0;
#X connect 40 0 22 0;
#X connect 41 0 27 0;
#X connect 42 0 32 0;
#X connect 43 0 37 0;
#X connect 44 0 2 0;
#X connect 47 0 5 0;
#X connect 48 0 7 0;
#X connect 51 0 10 0;
#X restore 229 254 pd combfilters-right2;
#X obj 211 292 +~;
#N canvas 562 74 448 547 diffusor-right 0;
#X obj 27 156 *~ 0.5;
#X obj 12 178 +~;
#X obj 42 178 -~;
#X obj 12 112 inlet~;
#X obj 57 244 *~ 0.5;
#X obj 42 266 +~;
#X obj 72 266 -~;
#X obj 87 332 *~ 0.5;
#X obj 72 354 +~;
#X obj 102 354 -~;
#X obj 117 420 *~ 0.5;
#X obj 102 445 +~;
#X obj 132 445 -~;
#X obj 132 511 outlet~;
#X obj 132 489 hip~ 5;
#X obj 212 78 samplerate~;
#X obj 185 95 /;
#X obj 185 56 t f b;
#X obj 185 117 * 1000;
#X obj 185 12 loadbang;
#X obj 262 166 samplerate~;
#X obj 235 183 /;
#X obj 235 144 t f b;
#X obj 235 205 * 1000;
#X obj 235 100 loadbang;
#X obj 312 254 samplerate~;
#X obj 285 271 /;
#X obj 285 232 t f b;
#X obj 285 293 * 1000;
#X obj 285 188 loadbang;
#X obj 362 342 samplerate~;
#X obj 335 359 /;
#X obj 335 320 t f b;
#X obj 335 381 * 1000;
#X obj 335 276 loadbang;
#X msg 185 34 248;
#X msg 235 122 579;
#X msg 285 210 464;
#X msg 335 298 364;
#X obj 27 134 delread~ \$0-allpass1right;
#X obj 57 222 delread~ \$0-allpass2right;
#X obj 87 310 delread~ \$0-allpass3right;
#X obj 117 398 delread~ \$0-allpass4right;
#X obj 102 467 delwrite~ \$0-allpass4right 40;
#X obj 72 376 delwrite~ \$0-allpass3right 40;
#X obj 42 288 delwrite~ \$0-allpass2right 40;
#X obj 12 200 delwrite~ \$0-allpass1right 40;
#X connect 0 0 1 1;
#X connect 1 0 46 0;
#X connect 2 0 5 0;
#X connect 2 0 6 1;
#X connect 3 0 1 0;
#X connect 3 0 2 1;
#X connect 4 0 5 1;
#X connect 5 0 45 0;
#X connect 6 0 8 0;
#X connect 6 0 9 1;
#X connect 7 0 8 1;
#X connect 8 0 44 0;
#X connect 9 0 11 0;
#X connect 9 0 12 1;
#X connect 10 0 11 1;
#X connect 11 0 43 0;
#X connect 12 0 14 0;
#X connect 14 0 13 0;
#X connect 15 0 16 1;
#X connect 16 0 18 0;
#X connect 17 0 16 0;
#X connect 17 1 15 0;
#X connect 18 0 39 0;
#X connect 19 0 35 0;
#X connect 20 0 21 1;
#X connect 21 0 23 0;
#X connect 22 0 21 0;
#X connect 22 1 20 0;
#X connect 23 0 40 0;
#X connect 24 0 36 0;
#X connect 25 0 26 1;
#X connect 26 0 28 0;
#X connect 27 0 26 0;
#X connect 27 1 25 0;
#X connect 28 0 41 0;
#X connect 29 0 37 0;
#X connect 30 0 31 1;
#X connect 31 0 33 0;
#X connect 32 0 31 0;
#X connect 32 1 30 0;
#X connect 33 0 42 0;
#X connect 34 0 38 0;
#X connect 35 0 17 0;
#X connect 36 0 22 0;
#X connect 37 0 27 0;
#X connect 38 0 32 0;
#X connect 39 0 0 0;
#X connect 39 0 2 0;
#X connect 40 0 4 0;
#X connect 40 0 6 0;
#X connect 41 0 7 0;
#X connect 41 0 9 0;
#X connect 42 0 10 0;
#X connect 42 0 12 0;
#X restore 211 314 pd diffusor-right;
#X obj 150 171 +~;
#X obj 202 149 r revtime;
#X obj 276 149 r damping;
#X obj 58 489 *~;
#X obj 70 398 r reverb;
#X obj 130 341 r revtime;
#X obj 130 417 *, f 5;
#X obj 130 398 t b f;
#X obj 130 360 * -4.5;
#X obj 130 379 + 5.5;
#X obj 130 469 lop~ 1;
#X obj 131 440 sig~;
#X obj 58 508 outlet~ left;
#X obj 212 489 *~;
#X obj 211 508 outlet~ right;
#X obj 276 172 * 2.4;
#X text 42 32 Katja Vetter May 2012;
#X text 42 14 Freeverb implemented with Pd vanilla objects;
#X text 40 55 Source: https://github.com/MikeMorenoDSP/pd-mkmr;
#X text 40 75 Detailed explanation of freeverb:;
#X text 40 90 https://www.dsprelated.com/freebooks/pasp/Freeverb.html
;
#X text 173 379 compensate amplitude reduction;
#X connect 0 0 8 0;
#X connect 1 0 15 0;
#X connect 2 0 0 0;
#X connect 2 0 6 0;
#X connect 2 0 7 0;
#X connect 2 0 9 0;
#X connect 3 0 12 0;
#X connect 6 0 10 0;
#X connect 7 0 8 1;
#X connect 8 0 1 0;
#X connect 9 0 10 1;
#X connect 10 0 11 0;
#X connect 11 0 25 0;
#X connect 12 0 2 0;
#X connect 13 0 4 0;
#X connect 14 0 27 0;
#X connect 15 0 24 0;
#X connect 16 0 18 0;
#X connect 17 0 20 0;
#X connect 18 0 23 0;
#X connect 19 0 18 0;
#X connect 19 1 18 1;
#X connect 20 0 21 0;
#X connect 21 0 19 0;
#X connect 22 0 15 1;
#X connect 22 0 25 1;
#X connect 23 0 22 0;
#X connect 25 0 26 0;
#X connect 27 0 5 0;
