#N canvas 356 123 787 780 12;
#X obj 213 405 bng 15 250 50 0 empty empty empty 17 7 0 10 -262144
-1 -1;
#X obj 335 405 bng 15 250 50 0 empty empty empty 17 7 0 10 -262144
-1 -1;
#X obj 274 405 bng 15 250 50 0 empty empty empty 17 7 0 10 -262144
-1 -1;
#X msg 230 420 0;
#X msg 199 420 1;
#X msg 292 420 0;
#X msg 260 420 1;
#X msg 353 420 0;
#X msg 322 420 1;
#X obj 203 439 tgl 15 0 empty empty empty 17 7 0 10 -262144 -1 -1 1
1;
#X obj 268 439 tgl 15 0 empty empty empty 17 7 0 10 -262144 -1 -1 0
1;
#X obj 336 439 tgl 15 0 empty empty empty 17 7 0 10 -262144 -1 -1 0
1;
#X obj 213 386 sel 0;
#X obj 252 386 sel 1 -1;
#X obj 312 386 sel 2 -2;
#X obj 203 454 s fx1;
#X obj 336 454 s fx3;
#X obj 241 300 bng 15 250 50 0 empty empty empty 17 7 0 10 -262144
-1 -1;
#X obj 377 300 bng 15 250 50 0 empty empty empty 17 7 0 10 -262144
-1 -1;
#X obj 302 348 f 0;
#X obj 241 182 spigot;
#X obj 377 182 spigot;
#X obj 280 166 tgl 15 0 empty empty empty 17 7 0 10 -262144 -1 -1 1
1;
#X obj 416 166 tgl 15 0 empty empty empty 17 7 0 10 -262144 -1 -1 1
1;
#X msg 402 147 0;
#X obj 402 128 r expIn;
#X obj 342 147 r expOut;
#X obj 280 147 loadbang;
#X obj 241 212 s skip_l;
#X obj 377 212 s skip_r;
#X obj 241 94 r btn3;
#X obj 377 94 r btn4;
#X obj 302 367 % 4;
#X obj 395 405 bng 15 250 50 0 empty empty empty 17 7 0 10 -262144
-1 -1;
#X msg 413 420 0;
#X msg 383 420 1;
#X obj 396 439 tgl 15 0 empty empty empty 17 7 0 10 -262144 -1 -1 0
1;
#X obj 372 386 sel 3 -3;
#X obj 396 454 s fx4;
#X obj 241 349 - 1;
#X obj 302 315 delay 50;
#X obj 377 348 + 1;
#X obj 302 281 until;
#X obj 302 243 loadbang;
#X msg 302 262 3;
#X text 425 93 skip right;
#X text 170 94 skip left;
#X text 434 165 block action if;
#X text 438 212 send to [led];
#X text 145 212 send to [led];
#X text 333 262 run through effects on load;
#X text 365 313 bang float to output;
#X text 381 326 current value;
#X text 45 348 extract 1 from stored value;
#X text 405 347 add 1 to stored value;
#X text 328 366 keep value in range (0 - 3);
#X text 434 386 select fx if number match;
#X text 444 413 set selected fx number to 1;
#X text 446 430 while all the others to 0;
#X text 434 455 send fx select;
#X text 365 599 allow action only if fx2 is selcted;
#X text 427 182 exp mode is in;
#X text 59 565 block action if;
#X text 52 581 exp select is in;
#X text 114 694 when fx2 is selected;
#X text 407 687 each time btn2 is pressed;
#X text 123 678 initialize fx2.1;
#X text 387 670 alternate between fx2.1 and fx2.2;
#X text 401 727 send alternative fx select;
#X text 51 23 Skip back and forth between effects.;
#X obj 268 455 s fx2;
#X obj 311 656 sel 1, f 7;
#X obj 311 571 r btn2;
#X obj 311 640 tgl 15 0 empty empty empty 17 7 0 10 -262144 -1 -1 1
1;
#X obj 311 594 spigot;
#X obj 357 675 bng 15 250 50 0 empty empty empty 17 7 0 10 -262144
-1 -1;
#X obj 311 675 bng 15 250 50 0 empty empty empty 17 7 0 10 -262144
-1 -1;
#X msg 300 690 0;
#X msg 268 690 1;
#X msg 364 690 0;
#X msg 332 690 1;
#X obj 268 709 tgl 15 0 empty empty empty 17 7 0 10 -262144 -1 -1 0
1;
#X obj 332 709 tgl 15 0 empty empty empty 17 7 0 10 -262144 -1 -1 0
1;
#X obj 268 671 sel 0;
#X obj 311 617 spigot;
#X obj 237 564 r expIn;
#X obj 177 564 r expOut;
#X msg 237 583 0;
#X msg 177 583 1;
#X obj 177 602 tgl 15 0 empty empty empty 17 7 0 10 -262144 -1 -1 1
1;
#X obj 268 724 s fx2.1;
#X obj 332 724 s fx2.2;
#X obj 176 621 loadbang;
#X text 365 555 press btn2 for alternative parameter;
#X text 58 509 Call up alternative parameter for tape delay;
#X connect 0 0 4 0;
#X connect 0 0 3 0;
#X connect 1 0 8 0;
#X connect 1 0 7 0;
#X connect 2 0 6 0;
#X connect 2 0 5 0;
#X connect 3 0 10 0;
#X connect 3 0 11 0;
#X connect 3 0 36 0;
#X connect 4 0 9 0;
#X connect 5 0 9 0;
#X connect 5 0 11 0;
#X connect 5 0 36 0;
#X connect 6 0 10 0;
#X connect 7 0 10 0;
#X connect 7 0 9 0;
#X connect 7 0 36 0;
#X connect 8 0 11 0;
#X connect 9 0 15 0;
#X connect 10 0 70 0;
#X connect 10 0 83 0;
#X connect 10 0 81 0;
#X connect 10 0 74 1;
#X connect 11 0 16 0;
#X connect 12 0 0 0;
#X connect 13 0 2 0;
#X connect 13 1 2 0;
#X connect 14 0 1 0;
#X connect 14 1 1 0;
#X connect 17 0 39 0;
#X connect 17 0 40 0;
#X connect 18 0 40 0;
#X connect 18 0 41 0;
#X connect 19 0 32 0;
#X connect 19 0 39 0;
#X connect 19 0 41 0;
#X connect 20 0 17 0;
#X connect 20 0 28 0;
#X connect 21 0 18 0;
#X connect 21 0 29 0;
#X connect 22 0 20 1;
#X connect 23 0 21 1;
#X connect 24 0 22 0;
#X connect 24 0 23 0;
#X connect 25 0 24 0;
#X connect 26 0 22 0;
#X connect 26 0 23 0;
#X connect 27 0 23 0;
#X connect 27 0 22 0;
#X connect 30 0 20 0;
#X connect 31 0 21 0;
#X connect 32 0 12 0;
#X connect 32 0 14 0;
#X connect 32 0 13 0;
#X connect 32 0 37 0;
#X connect 33 0 35 0;
#X connect 33 0 34 0;
#X connect 34 0 11 0;
#X connect 34 0 10 0;
#X connect 34 0 9 0;
#X connect 35 0 36 0;
#X connect 36 0 38 0;
#X connect 37 0 33 0;
#X connect 37 1 33 0;
#X connect 39 0 19 1;
#X connect 40 0 19 0;
#X connect 41 0 19 1;
#X connect 42 0 18 0;
#X connect 42 0 19 0;
#X connect 43 0 44 0;
#X connect 44 0 42 0;
#X connect 71 0 76 0;
#X connect 71 1 75 0;
#X connect 72 0 74 0;
#X connect 73 0 71 0;
#X connect 74 0 84 0;
#X connect 75 0 80 0;
#X connect 75 0 79 0;
#X connect 76 0 78 0;
#X connect 76 0 77 0;
#X connect 77 0 82 0;
#X connect 78 0 81 0;
#X connect 79 0 81 0;
#X connect 80 0 82 0;
#X connect 81 0 90 0;
#X connect 82 0 91 0;
#X connect 83 0 77 0;
#X connect 83 0 79 0;
#X connect 84 0 73 0;
#X connect 85 0 87 0;
#X connect 86 0 88 0;
#X connect 87 0 89 0;
#X connect 88 0 89 0;
#X connect 89 0 84 1;
#X connect 92 0 89 0;
#X connect 92 0 73 0;
