#N canvas -9 -9 1920 976 12;
#X obj 16 720 s bela_setGui;
#X obj 16 528 bng 15 250 50 0 empty empty empty 17 7 0 10 -262144 -1
-1;
#X obj 16 509 loadbang;
#X msg 16 695 new array xy;
#X msg 16 593 new control mouseX;
#X msg 16 544 new control mouseY;
#X msg 16 618 new control clickX;
#X msg 16 569 new control clickY;
#X msg 16 645 new control windowHeight;
#X msg 16 669 new control windowWidth;
#X obj 217 473 r bela_guiControl;
#X obj 217 492 route mouseX mouseY clickX clickY windowWidth windowHeight
, f 82;
#X obj 217 511 s mouseX;
#X obj 284 511 s mouseY;
#X obj 1017 644 spigot;
#X obj 1143 644 spigot;
#X obj 1232 644 spigot;
#X obj 1355 644 spigot;
#X obj 920 568 int;
#X obj 920 530 /;
#X obj 920 549 * 10;
#X obj 920 587 change;
#X obj 693 587 / 2.2;
#X obj 693 549 / 1.8;
#X obj 1013 321 r mouseX;
#X obj 1140 378 r mouseY;
#X obj 1182 416 tgl 19 0 empty empty empty 0 -10 0 12 -262144 -1 -1
0 1;
#X obj 1270 416 tgl 19 0 empty empty empty 0 -10 0 12 -262144 -1 -1
0 1;
#X obj 693 568 s height_bot;
#X obj 693 606 s height_top;
#X obj 1200 378 r height_top;
#X obj 1288 378 r height_bot;
#X obj 1182 397 <;
#X obj 1270 397 >;
#X obj 597 568 s width_rl;
#X obj 597 606 s width_rr;
#X obj 597 587 / 2.17;
#X obj 1055 359 tgl 19 0 empty empty empty 0 -10 0 12 -262144 -1 -1
0 1;
#X obj 1111 359 tgl 19 0 empty empty empty 0 -10 0 12 -262144 -1 -1
0 1;
#X obj 1055 340 >;
#X obj 1106 340 <;
#X obj 1073 321 r width_rl;
#X obj 1147 321 r width_rr;
#X obj 1055 378 t b f;
#X obj 1055 416 tgl 19 0 empty empty empty 0 -10 0 12 -262144 -1 -1
0 1;
#X obj 1055 397 == 2, f 5;
#X obj 1055 435 t b f;
#X obj 1054 470 tgl 19 0 empty empty empty 0 -10 0 12 -262144 -1 -1
0 1;
#X obj 1182 435 t b f;
#X obj 1182 473 tgl 19 0 empty empty empty 0 -10 0 12 -262144 -1 -1
0 1;
#X obj 1054 451 > 1, f 5;
#X obj 1182 454 > 1, f 5;
#X obj 1333 321 r mouseX;
#X obj 1393 359 tgl 19 0 empty empty empty 0 -10 0 12 -262144 -1 -1
0 1;
#X obj 1449 359 tgl 19 0 empty empty empty 0 -10 0 12 -262144 -1 -1
0 1;
#X obj 1393 378 t b f;
#X obj 1393 416 tgl 19 0 empty empty empty 0 -10 0 12 -262144 -1 -1
0 1;
#X obj 1393 397 == 2, f 5;
#X obj 1467 321 r width_lr;
#X obj 1393 321 r width_ll;
#X obj 597 644 s width_ll;
#X obj 597 720 s width_lr;
#X obj 597 625 / 1.85;
#X obj 1393 340 >;
#X obj 1449 340 <;
#X obj 1641 427 sel 1;
#X obj 1271 435 t b f;
#X obj 1271 492 tgl 19 0 empty empty empty 0 -10 0 12 -262144 -1 -1
0 1;
#X obj 1393 435 t b f;
#X obj 1393 473 tgl 19 0 empty empty empty 0 -10 0 12 -262144 -1 -1
0 1;
#X obj 1271 454 > 1, f 5;
#X obj 1393 454 > 1, f 5;
#X obj 597 549 / 16.5;
#X text 1352 686 top_right;
#X text 1144 687 top_left;
#X text 1018 686 bot_left;
#X text 1232 687 bot_right;
#X obj 597 701 / 1.07;
#X obj 217 294 loadbang;
#X obj 217 370 s bela_guiOut;
#X msg 217 332 0, f 8;
#X floatatom 920 462 5 0 0 0 - - -;
#X obj 920 405 * -1;
#X obj 788 511 s invert_value;
#X obj 938 424 r invert_value;
#X obj 920 443 +;
#X obj 920 386 r mouseY;
#X obj 828 530 s scale_down;
#X obj 920 480 s touch_move;
#X obj 1641 691 s btn4;
#X obj 1641 506 bng 19 250 50 0 empty empty empty 0 -10 0 12 -262144
-1 -1;
#X obj 1017 606 spigot;
#X obj 1054 492 t b f;
#X obj 1054 511 +, f 5;
#X obj 1054 549 tgl 19 0 empty empty empty 0 -10 0 12 -262144 -1 -1
0 1;
#X obj 1054 530 > 1, f 5;
#X obj 1393 492 t b f;
#X obj 1393 511 +, f 5;
#X obj 1393 549 tgl 19 0 empty empty empty 0 -10 0 12 -262144 -1 -1
0 1;
#X obj 1393 530 > 1, f 5;
#X obj 1064 606 tgl 19 0 empty empty empty 0 -10 0 12 -262144 -1 -1
0 1;
#X obj 1054 568 * -1;
#X obj 1054 587 + 1;
#X obj 1393 568 * -1;
#X obj 1393 587 + 1;
#X obj 1017 625 spigot;
#X obj 1393 606 tgl 19 0 empty empty empty 0 -10 0 12 -262144 -1 -1
0 1;
#X obj 693 511 / 1.16;
#X obj 597 511 / 3.76;
#X obj 597 663 / 1.42;
#X obj 597 530 s height_b_l;
#X obj 597 682 s height_b_r;
#X obj 1602 408 tgl 19 0 empty empty empty 0 -10 0 12 -262144 -1 -1
0 1;
#X obj 1641 408 tgl 19 0 empty empty empty 0 -10 0 12 -262144 -1 -1
0 1;
#X obj 1602 389 <;
#X obj 1641 389 >;
#X obj 1620 331 r height_b_l;
#X obj 1659 350 r height_b_r;
#X obj 1602 370 r mouseX;
#X obj 1641 544 spigot;
#X obj 1687 525 tgl 19 0 empty empty empty 0 -10 0 12 -262144 -1 -1
0 1;
#X obj 1733 467 r mouseY;
#X obj 1733 506 >;
#X obj 1511 543 spigot;
#X obj 1733 525 tgl 19 0 empty empty empty 0 -10 0 12 -262144 -1 -1
0 1;
#X obj 1602 447 sel 1;
#X obj 1511 485 bng 19 250 50 0 empty empty empty 0 -10 0 12 -262144
-1 -1;
#X obj 1511 692 s btn3;
#X obj 1511 524 del 10;
#X obj 1641 525 del 10;
#X obj 693 530 s height_b;
#X obj 1751 486 r height_b;
#X obj 1641 467 t b f;
#X obj 1602 486 +, f 5;
#X obj 1602 525 tgl 19 0 empty empty empty 0 -10 0 12 -262144 -1 -1
0 1;
#X obj 1602 505 < 1, f 5;
#X obj 1694 620 spigot;
#X obj 1733 585 tgl 19 0 empty empty empty 0 -10 0 12 -262144 -1 -1
0 1;
#X obj 1694 691 s btn2;
#X obj 1602 544 sel 1;
#X obj 1602 582 bng 19 250 50 0 empty empty empty 0 -10 0 12 -262144
-1 -1;
#X obj 1640 601 del 10;
#X obj 1511 466 debounce 100;
#N canvas 76 183 500 385 scn_circles_to_gui 0;
#X obj 156 80 -;
#X obj 156 103 /;
#X obj 255 81 -;
#X obj 255 104 /;
#X obj 354 80 -;
#X obj 354 103 /;
#X obj 156 56 r scanner;
#X obj 255 57 r rate;
#X obj 354 56 r depth;
#X obj 156 128 clip 0.05 0.9;
#X obj 255 128 clip 0.05 0.9;
#X obj 354 128 clip 0.05 0.9;
#X obj 57 80 -;
#X obj 57 103 /;
#X obj 57 128 clip 0.05 0.9;
#X obj 57 56 r d/w_scn;
#X obj 57 176 f;
#X obj 156 176 f;
#X obj 255 176 f;
#X obj 354 176 f;
#X obj 57 214 outlet;
#X obj 136 214 outlet;
#X obj 255 214 outlet;
#X obj 334 214 outlet;
#X obj 196 195 sel 1;
#X obj 57 195 spigot;
#X obj 136 195 spigot;
#X obj 255 195 spigot;
#X obj 334 195 spigot;
#X obj 196 176 r fx1;
#X obj 196 157 del 10;
#X obj 85 79 r gui-1/1;
#X obj 86 102 r gui/1/1;
#X obj 184 79 r gui-2/1;
#X obj 185 102 r gui/2/1;
#X obj 283 80 r gui-3/1;
#X obj 284 103 r gui/3/1;
#X obj 382 79 r gui-4/1;
#X obj 383 102 r gui/4/1;
#X connect 0 0 1 0;
#X connect 1 0 9 0;
#X connect 2 0 3 0;
#X connect 3 0 10 0;
#X connect 4 0 5 0;
#X connect 5 0 11 0;
#X connect 6 0 0 0;
#X connect 7 0 2 0;
#X connect 8 0 4 0;
#X connect 9 0 17 0;
#X connect 10 0 18 0;
#X connect 11 0 19 0;
#X connect 12 0 13 0;
#X connect 13 0 14 0;
#X connect 14 0 16 0;
#X connect 15 0 12 0;
#X connect 16 0 25 0;
#X connect 17 0 26 0;
#X connect 18 0 27 0;
#X connect 19 0 28 0;
#X connect 24 0 30 0;
#X connect 25 0 20 0;
#X connect 26 0 21 0;
#X connect 27 0 22 0;
#X connect 28 0 23 0;
#X connect 29 0 24 0;
#X connect 29 0 25 1;
#X connect 29 0 28 1;
#X connect 29 0 27 1;
#X connect 29 0 26 1;
#X connect 30 0 18 0;
#X connect 30 0 19 0;
#X connect 30 0 17 0;
#X connect 30 0 16 0;
#X connect 31 0 12 1;
#X connect 32 0 13 1;
#X connect 33 0 0 1;
#X connect 34 0 1 1;
#X connect 35 0 2 1;
#X connect 36 0 3 1;
#X connect 37 0 4 1;
#X connect 38 0 5 1;
#X restore 324 313 pd scn_circles_to_gui;
#X f 23;
#N canvas 383 394 793 307 del_circles_to_gui 0;
#X obj 159 94 -;
#X obj 159 117 /;
#X obj 159 70 r delay;
#X obj 258 94 -;
#X obj 258 117 /;
#X obj 372 93 -;
#X obj 372 116 /;
#X obj 258 70 r deltime;
#X obj 372 69 r feedback;
#X obj 61 93 -;
#X obj 61 116 /;
#X obj 61 69 r d/w_del;
#X obj 159 142 clip 0.05 0.9;
#X obj 258 142 clip 0.05 0.9;
#X obj 372 142 clip 0.05 0.9;
#X obj 61 142 clip 0.05 0.9;
#X obj 485 92 -;
#X obj 485 115 /;
#X obj 599 91 -;
#X obj 599 114 /;
#X obj 485 142 clip 0.05 0.9;
#X obj 599 142 clip 0.05 0.9;
#X obj 485 68 r ramptime;
#X obj 599 67 r rolloff;
#X obj 61 195 f;
#X obj 159 195 f;
#X obj 258 195 f;
#X obj 372 195 f;
#X obj 61 233 outlet;
#X obj 139 233 outlet;
#X obj 258 233 outlet;
#X obj 352 233 outlet;
#X obj 412 214 sel 1;
#X obj 61 214 spigot;
#X obj 139 214 spigot;
#X obj 258 214 spigot;
#X obj 352 214 spigot;
#X obj 412 176 del 10;
#X obj 412 195 r fx2.1;
#X obj 485 195 f;
#X obj 599 195 f;
#X obj 648 214 sel 1;
#X obj 485 214 spigot;
#X obj 579 214 spigot;
#X obj 648 176 del 10;
#X obj 648 195 r fx2.2;
#X obj 196 214 sel 1;
#X obj 196 176 del 10;
#X obj 196 195 r fx2;
#X obj 89 92 r gui-1/2;
#X obj 90 115 r gui/1/2;
#X obj 187 93 r gui-2/2;
#X obj 188 116 r gui/2/2;
#X obj 287 93 r gui-3/2.1;
#X obj 400 92 r gui-4/2.1;
#X obj 401 115 r gui/4/2.1;
#X obj 513 91 r gui-3/2.2;
#X obj 514 114 r gui/3/2.2;
#X obj 627 90 r gui-4/2.2;
#X obj 628 113 r gui/4/2.2;
#X obj 287 116 r gui/3/2.1;
#X connect 0 0 1 0;
#X connect 1 0 12 0;
#X connect 2 0 0 0;
#X connect 3 0 4 0;
#X connect 4 0 13 0;
#X connect 5 0 6 0;
#X connect 6 0 14 0;
#X connect 7 0 3 0;
#X connect 8 0 5 0;
#X connect 9 0 10 0;
#X connect 10 0 15 0;
#X connect 11 0 9 0;
#X connect 12 0 25 0;
#X connect 13 0 26 0;
#X connect 14 0 27 0;
#X connect 15 0 24 0;
#X connect 16 0 17 0;
#X connect 17 0 20 0;
#X connect 18 0 19 0;
#X connect 19 0 21 0;
#X connect 20 0 39 0;
#X connect 21 0 40 0;
#X connect 22 0 16 0;
#X connect 23 0 18 0;
#X connect 24 0 33 0;
#X connect 25 0 34 0;
#X connect 26 0 35 0;
#X connect 27 0 36 0;
#X connect 32 0 37 0;
#X connect 33 0 28 0;
#X connect 34 0 29 0;
#X connect 35 0 30 0;
#X connect 36 0 31 0;
#X connect 37 0 26 0;
#X connect 37 0 27 0;
#X connect 38 0 32 0;
#X connect 38 0 36 1;
#X connect 38 0 35 1;
#X connect 39 0 42 0;
#X connect 40 0 43 0;
#X connect 41 0 44 0;
#X connect 42 0 30 0;
#X connect 43 0 31 0;
#X connect 44 0 39 0;
#X connect 44 0 40 0;
#X connect 45 0 41 0;
#X connect 45 0 43 1;
#X connect 45 0 42 1;
#X connect 46 0 47 0;
#X connect 47 0 25 0;
#X connect 47 0 24 0;
#X connect 48 0 46 0;
#X connect 48 0 34 1;
#X connect 48 0 33 1;
#X connect 49 0 9 1;
#X connect 50 0 10 1;
#X connect 51 0 0 1;
#X connect 52 0 1 1;
#X connect 53 0 3 1;
#X connect 54 0 5 1;
#X connect 55 0 6 1;
#X connect 56 0 16 1;
#X connect 57 0 17 1;
#X connect 58 0 18 1;
#X connect 59 0 19 1;
#X connect 60 0 4 1;
#X restore 324 275 pd del_circles_to_gui;
#X f 23;
#N canvas 666 116 450 300 rev_circles_to_gui 0;
#X obj 143 78 -;
#X obj 143 101 /;
#X obj 241 77 -;
#X obj 241 100 /;
#X obj 339 76 -;
#X obj 339 99 /;
#X obj 143 54 r reverb;
#X obj 241 53 r revtime;
#X obj 339 52 r damping;
#X obj 45 78 -;
#X obj 45 101 /;
#X obj 45 54 r d/w_rev;
#X obj 143 127 clip 0.05 0.9;
#X obj 241 127 clip 0.05 0.9;
#X obj 339 127 clip 0.05 0.9;
#X obj 45 127 clip 0.05 0.9;
#X obj 45 176 f;
#X obj 143 176 f;
#X obj 241 176 f;
#X obj 339 176 f;
#X obj 45 214 outlet;
#X obj 123 214 outlet;
#X obj 241 214 outlet;
#X obj 319 214 outlet;
#X obj 178 195 sel 1;
#X obj 45 195 spigot;
#X obj 123 195 spigot;
#X obj 241 195 spigot;
#X obj 319 195 spigot;
#X obj 178 157 del 10;
#X obj 178 176 r fx3;
#X obj 73 77 r gui-2/3;
#X obj 74 100 r gui/2/3;
#X obj 171 77 r gui-2/3;
#X obj 171 100 r gui/2/3;
#X obj 269 76 r gui-3/3;
#X obj 270 99 r gui/3/3;
#X obj 367 75 r gui-4/3;
#X obj 368 98 r gui/4/3;
#X connect 0 0 1 0;
#X connect 1 0 12 0;
#X connect 2 0 3 0;
#X connect 3 0 13 0;
#X connect 4 0 5 0;
#X connect 5 0 14 0;
#X connect 6 0 0 0;
#X connect 7 0 2 0;
#X connect 8 0 4 0;
#X connect 9 0 10 0;
#X connect 10 0 15 0;
#X connect 11 0 9 0;
#X connect 12 0 17 0;
#X connect 13 0 18 0;
#X connect 14 0 19 0;
#X connect 15 0 16 0;
#X connect 16 0 25 0;
#X connect 17 0 26 0;
#X connect 18 0 27 0;
#X connect 19 0 28 0;
#X connect 24 0 29 0;
#X connect 25 0 20 0;
#X connect 26 0 21 0;
#X connect 27 0 22 0;
#X connect 28 0 23 0;
#X connect 29 0 18 0;
#X connect 29 0 19 0;
#X connect 29 0 17 0;
#X connect 29 0 16 0;
#X connect 30 0 24 0;
#X connect 30 0 25 1;
#X connect 30 0 28 1;
#X connect 30 0 27 1;
#X connect 30 0 26 1;
#X connect 31 0 9 1;
#X connect 32 0 10 1;
#X connect 33 0 0 1;
#X connect 34 0 1 1;
#X connect 35 0 2 1;
#X connect 36 0 3 1;
#X connect 37 0 4 1;
#X connect 38 0 5 1;
#X restore 324 294 pd rev_circles_to_gui;
#X f 23;
#N canvas 87 266 437 257 rev_values_to_gui 0;
#X obj 58 88 int;
#X obj 58 69 * 100;
#X obj 58 163 outlet;
#X obj 129 88 int;
#X obj 129 69 * 100;
#X obj 262 88 int;
#X obj 262 69 * 100;
#X obj 333 88 int;
#X obj 333 69 * 100;
#X obj 58 50 r d/w_rev;
#X obj 129 50 r reverb;
#X obj 262 50 r revtime;
#X obj 333 50 r damping;
#X obj 129 163 outlet;
#X obj 262 163 outlet;
#X obj 333 163 outlet;
#X obj 200 125 r fx3;
#X obj 200 144 sel 1;
#X obj 58 144 spigot;
#X obj 129 144 spigot;
#X obj 262 144 spigot;
#X obj 333 144 spigot;
#X obj 200 69 del 1;
#X connect 0 0 18 0;
#X connect 1 0 0 0;
#X connect 3 0 19 0;
#X connect 4 0 3 0;
#X connect 5 0 20 0;
#X connect 6 0 5 0;
#X connect 7 0 21 0;
#X connect 8 0 7 0;
#X connect 9 0 1 0;
#X connect 10 0 4 0;
#X connect 11 0 6 0;
#X connect 12 0 8 0;
#X connect 16 0 17 0;
#X connect 16 0 18 1;
#X connect 16 0 21 1;
#X connect 16 0 20 1;
#X connect 16 0 19 1;
#X connect 17 0 22 0;
#X connect 18 0 2 0;
#X connect 19 0 13 0;
#X connect 20 0 14 0;
#X connect 21 0 15 0;
#X connect 22 0 0 0;
#X connect 22 0 7 0;
#X connect 22 0 5 0;
#X connect 22 0 3 0;
#X restore 590 313 pd rev_values_to_gui;
#X f 23;
#N canvas 574 337 450 306 loop_circles_to_gui 0;
#X obj 45 78 -;
#X obj 45 101 /;
#X obj 45 54 r loop1;
#X obj 45 128 clip 0.05 0.9;
#X obj 45 176 f;
#X obj 143 176 f;
#X obj 242 176 f;
#X obj 341 176 f;
#X obj 45 214 outlet;
#X obj 123 214 outlet;
#X obj 242 214 outlet;
#X obj 321 214 outlet;
#X obj 178 195 sel 1;
#X obj 45 195 spigot;
#X obj 123 195 spigot;
#X obj 242 195 spigot;
#X obj 321 195 spigot;
#X obj 178 157 del 10;
#X obj 178 176 r fx4;
#X obj 73 77 r gui-1/4;
#X obj 74 100 r gui/1/4;
#X obj 242 138 loadbang;
#X msg 242 157 0.1;
#X connect 0 0 1 0;
#X connect 1 0 3 0;
#X connect 2 0 0 0;
#X connect 3 0 4 0;
#X connect 4 0 13 0;
#X connect 5 0 14 0;
#X connect 6 0 15 0;
#X connect 7 0 16 0;
#X connect 12 0 17 0;
#X connect 13 0 8 0;
#X connect 14 0 9 0;
#X connect 15 0 10 0;
#X connect 16 0 11 0;
#X connect 17 0 6 0;
#X connect 17 0 7 0;
#X connect 17 0 5 0;
#X connect 17 0 4 0;
#X connect 18 0 12 0;
#X connect 18 0 13 1;
#X connect 18 0 16 1;
#X connect 18 0 15 1;
#X connect 18 0 14 1;
#X connect 19 0 0 1;
#X connect 20 0 1 1;
#X connect 21 0 22 0;
#X connect 22 0 6 0;
#X connect 22 0 7 0;
#X connect 22 0 5 0;
#X restore 324 332 pd loop_circles_to_gui;
#X f 23;
#N canvas 224 224 457 300 <fx> 0;
#X obj 105 98 sel 1;
#X obj 170 99 sel 1;
#X obj 329 99 sel 1;
#X msg 104 123 1;
#X msg 170 122 2;
#X msg 329 122 3;
#X obj 106 56 r fx1;
#X obj 403 100 sel 1;
#X msg 403 123 4;
#X obj 330 58 r fx3;
#X obj 404 59 r fx4;
#X obj 128 13 r fx2.1;
#X obj 160 203 outlet;
#X obj 192 11 r fx2;
#X obj 170 46 spigot;
#X obj 276 96 sel 1;
#X obj 298 8 r fx2;
#X obj 276 43 spigot;
#X obj 234 10 r fx2.2;
#X msg 278 121 2.5;
#X connect 0 0 3 0;
#X connect 1 0 4 0;
#X connect 2 0 5 0;
#X connect 3 0 12 0;
#X connect 4 0 12 0;
#X connect 5 0 12 0;
#X connect 6 0 0 0;
#X connect 7 0 8 0;
#X connect 8 0 12 0;
#X connect 9 0 2 0;
#X connect 10 0 7 0;
#X connect 11 0 14 0;
#X connect 13 0 14 1;
#X connect 14 0 1 0;
#X connect 15 0 19 0;
#X connect 16 0 17 1;
#X connect 17 0 15 0;
#X connect 18 0 17 0;
#X connect 19 0 12 0;
#X restore 536 331 pd <fx>;
#N canvas 87 266 721 209 del_values_to_gui 0;
#X obj 65 73 int;
#X obj 65 54 * 100;
#X obj 65 148 outlet;
#X obj 136 73 int;
#X obj 136 54 * 100;
#X obj 136 148 outlet;
#X obj 207 129 sel 1;
#X obj 65 129 spigot;
#X obj 136 129 spigot;
#X obj 207 54 del 1;
#X obj 276 73 int;
#X obj 276 148 outlet;
#X obj 347 73 int;
#X obj 347 54 * 100;
#X obj 347 148 outlet;
#X obj 418 129 sel 1;
#X obj 276 129 spigot;
#X obj 347 129 spigot;
#X obj 418 54 del 1;
#X obj 487 73 int;
#X obj 565 73 int;
#X obj 636 129 sel 1;
#X obj 487 129 spigot;
#X obj 565 129 spigot;
#X obj 636 54 del 1;
#X obj 65 35 r d/w_del;
#X obj 136 35 r delay;
#X obj 276 35 r deltime;
#X obj 347 35 r feedback;
#X obj 487 35 r ramptime;
#X obj 565 35 r rolloff;
#X obj 636 110 r fx2.2;
#X obj 418 110 r fx2.1;
#X obj 207 110 r fx2;
#X connect 0 0 7 0;
#X connect 1 0 0 0;
#X connect 3 0 8 0;
#X connect 4 0 3 0;
#X connect 6 0 9 0;
#X connect 7 0 2 0;
#X connect 8 0 5 0;
#X connect 9 0 0 0;
#X connect 9 0 3 0;
#X connect 10 0 16 0;
#X connect 12 0 17 0;
#X connect 13 0 12 0;
#X connect 15 0 18 0;
#X connect 16 0 11 0;
#X connect 17 0 14 0;
#X connect 18 0 10 0;
#X connect 18 0 12 0;
#X connect 19 0 22 0;
#X connect 20 0 23 0;
#X connect 21 0 24 0;
#X connect 22 0 11 0;
#X connect 23 0 14 0;
#X connect 24 0 19 0;
#X connect 24 0 20 0;
#X connect 25 0 1 0;
#X connect 26 0 4 0;
#X connect 27 0 10 0;
#X connect 28 0 13 0;
#X connect 29 0 19 0;
#X connect 30 0 20 0;
#X connect 31 0 21 0;
#X connect 31 0 22 1;
#X connect 31 0 23 1;
#X connect 32 0 15 0;
#X connect 32 0 16 1;
#X connect 32 0 17 1;
#X connect 33 0 6 0;
#X connect 33 0 7 1;
#X connect 33 0 8 1;
#X restore 590 294 pd del_values_to_gui;
#X f 23;
#N canvas 87 266 417 317 scn_values_to_gui 0;
#X obj 58 88 int;
#X obj 58 69 * 100;
#X obj 58 163 outlet;
#X obj 129 88 int;
#X obj 129 69 * 100;
#X obj 262 88 int;
#X obj 262 69 * 100;
#X obj 333 88 int;
#X obj 333 69 * 100;
#X obj 129 163 outlet;
#X obj 262 163 outlet;
#X obj 333 163 outlet;
#X obj 200 144 sel 1;
#X obj 58 144 spigot;
#X obj 129 144 spigot;
#X obj 262 144 spigot;
#X obj 333 144 spigot;
#X obj 200 69 del 1;
#X obj 58 50 r d/w_scn;
#X obj 262 50 r rate;
#X obj 333 50 r depth;
#X obj 200 125 r fx1;
#X obj 129 50 r scanner;
#X connect 0 0 13 0;
#X connect 1 0 0 0;
#X connect 3 0 14 0;
#X connect 4 0 3 0;
#X connect 5 0 15 0;
#X connect 6 0 5 0;
#X connect 7 0 16 0;
#X connect 8 0 7 0;
#X connect 12 0 17 0;
#X connect 13 0 2 0;
#X connect 14 0 9 0;
#X connect 15 0 10 0;
#X connect 16 0 11 0;
#X connect 17 0 0 0;
#X connect 17 0 7 0;
#X connect 17 0 5 0;
#X connect 17 0 3 0;
#X connect 18 0 1 0;
#X connect 19 0 6 0;
#X connect 20 0 8 0;
#X connect 21 0 12 0;
#X connect 21 0 13 1;
#X connect 21 0 16 1;
#X connect 21 0 15 1;
#X connect 21 0 14 1;
#X connect 22 0 4 0;
#X restore 590 275 pd scn_values_to_gui;
#X f 23;
#N canvas 87 320 211 215 loop_values_to_gui 0;
#X obj 58 88 int;
#X obj 58 69 * 100;
#X obj 58 163 outlet;
#X obj 127 144 sel 1;
#X obj 58 144 spigot;
#X obj 127 69 del 1;
#X obj 58 50 r loop1;
#X obj 127 125 r fx4;
#X connect 0 0 4 0;
#X connect 1 0 0 0;
#X connect 3 0 5 0;
#X connect 4 0 2 0;
#X connect 5 0 0 0;
#X connect 6 0 1 0;
#X connect 7 0 3 0;
#X connect 7 0 4 1;
#X restore 590 332 pd loop_values_to_gui;
#X f 23;
#X obj 1641 487 debounce 200;
#X obj 1602 563 debounce 200;
#X msg 802 313 0;
#X obj 802 294 loadbang;
#X obj 802 256 r expOut;
#X obj 217 351 pack f f f f f f f f f f f f, f 84;
#X obj 802 332 r exp_to_gui;
#X obj 938 511 / 4;
#X text 36 82 Based on the gui-send and gui-receive example codes.
;
#X text 35 42 Graphical user interface (GUI) for displaying and controlling
parameters via a smartphone or tablet., f 101;
#X text 37 174 https://learn.bela.io/the-ide/crafting-guis/, f 50
;
#X text 37 100 https://learn.bela.io/tutorials/pure-data/communication/controlling-bela-from-a-gui/
, f 85;
#X text 37 119 https://learn.bela.io/tutorials/pure-data/communication/creating-a-gui-visualisation/
, f 85;
#X text 37 158 Additional information regarding the Bela GUI at:,
f 50;
#X obj 217 313 metro 100;
#X obj 1511 673 spigot;
#X obj 1641 672 spigot;
#X obj 1694 672 spigot;
#X obj 1572 654 r bypass;
#X text 355 374 send messages to the GUI (sketch.js);
#X text 354 469 receive messages from the GUI (sketch.js);
#X text 735 427 rescale and invert mouseY;
#X text 1252 266 select which part of the display is touched;
#X text 1033 736 send mouseY value to set the corresponding encoder
;
#X text 1515 731 trigger the corresponding button;
#X obj 1355 663 s encoder2;
#X obj 1232 663 s encoder4;
#X obj 1143 663 s encoder1;
#X obj 1017 663 s encoder3;
#X obj 802 275 del 1;
#X text 563 740 partition the display;
#X connect 1 0 4 0;
#X connect 1 0 5 0;
#X connect 1 0 6 0;
#X connect 1 0 7 0;
#X connect 1 0 3 0;
#X connect 1 0 9 0;
#X connect 1 0 8 0;
#X connect 2 0 1 0;
#X connect 3 0 0 0;
#X connect 4 0 0 0;
#X connect 5 0 0 0;
#X connect 6 0 0 0;
#X connect 7 0 0 0;
#X connect 8 0 0 0;
#X connect 9 0 0 0;
#X connect 10 0 11 0;
#X connect 11 0 12 0;
#X connect 11 1 13 0;
#X connect 11 4 36 0;
#X connect 11 4 62 0;
#X connect 11 4 72 0;
#X connect 11 4 77 0;
#X connect 11 4 108 0;
#X connect 11 4 109 0;
#X connect 11 5 22 0;
#X connect 11 5 23 0;
#X connect 11 5 83 0;
#X connect 11 5 107 0;
#X connect 11 5 159 0;
#X connect 14 0 180 0;
#X connect 15 0 179 0;
#X connect 16 0 178 0;
#X connect 17 0 177 0;
#X connect 18 0 21 0;
#X connect 19 0 20 0;
#X connect 20 0 18 0;
#X connect 21 0 91 0;
#X connect 22 0 29 0;
#X connect 23 0 28 0;
#X connect 24 0 39 0;
#X connect 24 0 40 0;
#X connect 25 0 32 0;
#X connect 25 0 33 0;
#X connect 26 0 46 0;
#X connect 26 0 66 0;
#X connect 27 0 48 0;
#X connect 27 0 68 0;
#X connect 30 0 32 1;
#X connect 31 0 33 1;
#X connect 32 0 26 0;
#X connect 33 0 27 0;
#X connect 36 0 35 0;
#X connect 37 0 45 0;
#X connect 38 0 43 0;
#X connect 39 0 37 0;
#X connect 40 0 38 0;
#X connect 41 0 39 1;
#X connect 42 0 40 1;
#X connect 43 0 45 0;
#X connect 43 1 45 1;
#X connect 44 0 50 0;
#X connect 44 0 51 0;
#X connect 45 0 44 0;
#X connect 46 0 50 0;
#X connect 46 1 50 1;
#X connect 47 0 14 1;
#X connect 47 0 93 0;
#X connect 48 0 51 0;
#X connect 48 1 51 1;
#X connect 49 0 15 1;
#X connect 49 0 92 0;
#X connect 50 0 47 0;
#X connect 51 0 49 0;
#X connect 52 0 63 0;
#X connect 52 0 64 0;
#X connect 53 0 57 0;
#X connect 54 0 55 0;
#X connect 55 0 57 0;
#X connect 55 1 57 1;
#X connect 56 0 70 0;
#X connect 56 0 71 0;
#X connect 57 0 56 0;
#X connect 58 0 64 1;
#X connect 59 0 63 1;
#X connect 62 0 60 0;
#X connect 63 0 53 0;
#X connect 64 0 54 0;
#X connect 65 0 152 0;
#X connect 66 0 70 0;
#X connect 66 1 70 1;
#X connect 67 0 16 1;
#X connect 67 0 97 0;
#X connect 68 0 71 0;
#X connect 68 1 71 1;
#X connect 69 0 17 1;
#X connect 69 0 96 0;
#X connect 70 0 67 0;
#X connect 71 0 69 0;
#X connect 72 0 34 0;
#X connect 77 0 61 0;
#X connect 78 0 166 0;
#X connect 80 0 157 0;
#X connect 81 0 88 0;
#X connect 81 0 19 0;
#X connect 82 0 85 0;
#X connect 84 0 85 1;
#X connect 85 0 81 0;
#X connect 86 0 82 0;
#X connect 90 0 129 0;
#X connect 91 0 105 0;
#X connect 92 0 93 0;
#X connect 92 1 93 1;
#X connect 93 0 95 0;
#X connect 94 0 101 0;
#X connect 95 0 94 0;
#X connect 96 0 97 0;
#X connect 96 1 97 1;
#X connect 97 0 99 0;
#X connect 98 0 103 0;
#X connect 99 0 98 0;
#X connect 100 0 91 1;
#X connect 101 0 102 0;
#X connect 102 0 100 0;
#X connect 103 0 104 0;
#X connect 104 0 106 0;
#X connect 105 0 14 0;
#X connect 105 0 17 0;
#X connect 105 0 16 0;
#X connect 105 0 15 0;
#X connect 106 0 105 1;
#X connect 107 0 130 0;
#X connect 108 0 110 0;
#X connect 109 0 111 0;
#X connect 112 0 125 0;
#X connect 112 0 133 0;
#X connect 113 0 65 0;
#X connect 113 0 132 0;
#X connect 114 0 112 0;
#X connect 115 0 113 0;
#X connect 116 0 114 1;
#X connect 117 0 115 1;
#X connect 118 0 114 0;
#X connect 118 0 115 0;
#X connect 119 0 168 0;
#X connect 120 0 119 1;
#X connect 121 0 122 0;
#X connect 122 0 120 0;
#X connect 122 0 124 0;
#X connect 122 0 137 0;
#X connect 123 0 167 0;
#X connect 124 0 123 1;
#X connect 125 0 142 0;
#X connect 126 0 128 0;
#X connect 128 0 123 0;
#X connect 129 0 119 0;
#X connect 131 0 122 1;
#X connect 132 0 133 0;
#X connect 132 1 133 1;
#X connect 133 0 135 0;
#X connect 134 0 139 0;
#X connect 135 0 134 0;
#X connect 136 0 169 0;
#X connect 137 0 136 1;
#X connect 139 0 153 0;
#X connect 140 0 141 0;
#X connect 141 0 136 0;
#X connect 142 0 126 0;
#X connect 143 0 157 2;
#X connect 143 1 157 3;
#X connect 143 2 157 4;
#X connect 143 3 157 5;
#X connect 144 0 157 2;
#X connect 144 1 157 3;
#X connect 144 2 157 4;
#X connect 144 3 157 5;
#X connect 145 0 157 2;
#X connect 145 1 157 3;
#X connect 145 2 157 4;
#X connect 145 3 157 5;
#X connect 146 0 157 7;
#X connect 146 1 157 8;
#X connect 146 2 157 9;
#X connect 146 3 157 10;
#X connect 147 0 157 2;
#X connect 147 1 157 3;
#X connect 147 2 157 4;
#X connect 147 3 157 5;
#X connect 148 0 157 6;
#X connect 149 0 157 7;
#X connect 149 1 157 8;
#X connect 149 2 157 9;
#X connect 149 3 157 10;
#X connect 150 0 157 7;
#X connect 150 1 157 8;
#X connect 150 2 157 9;
#X connect 150 3 157 10;
#X connect 151 0 157 7;
#X connect 152 0 90 0;
#X connect 153 0 140 0;
#X connect 154 0 157 11;
#X connect 155 0 154 0;
#X connect 156 0 181 0;
#X connect 157 0 79 0;
#X connect 158 0 157 11;
#X connect 159 0 87 0;
#X connect 159 0 19 1;
#X connect 166 0 80 0;
#X connect 167 0 127 0;
#X connect 168 0 89 0;
#X connect 169 0 138 0;
#X connect 170 0 167 1;
#X connect 170 0 168 1;
#X connect 170 0 169 1;
#X connect 181 0 154 0;
