#N canvas 704 115 504 384 10;
#X obj 39 118 inlet~;
#X obj 39 148 clip~ -3 3;
#X obj 54 188 *~;
#X obj 39 358 outlet~;
#X obj 109 188 sig~ 27;
#X obj 54 228 +~;
#X obj 54 298 /~;
#X obj 39 328 *~;
#X obj 94 228 *~ 9;
#X obj 94 268 +~;
#X text 142 258 // http://www.musicdsp.org/showone.php?id=238;
#X text 140 279 // y = x * (27 + x^2) / (27 + 9*x^2);
#X text 144 233 // pade-approximation of tanh function;
#X text 91 42 ===============================;
#X text 93 32 Tape Delay - by Robert Thomas - robertthomassound.com
;
#X text 39 33 part of:;
#X text 37 14 Tape saturation;
#X text 38 56 accesible in the Bela IDE under examples/salt/tape-delay
, f 69;
#X connect 0 0 1 0;
#X connect 1 0 2 0;
#X connect 1 0 2 1;
#X connect 1 0 7 0;
#X connect 2 0 5 0;
#X connect 2 0 8 0;
#X connect 4 0 5 1;
#X connect 4 0 9 1;
#X connect 5 0 6 0;
#X connect 6 0 7 1;
#X connect 7 0 3 0;
#X connect 8 0 9 0;
#X connect 9 0 6 1;
