#N canvas -9 -9 1920 976 12;
#X obj 163 411 f;
#X obj 181 392 inlet;
#X obj 163 433 outlet;
#X obj 81 367 loadbang;
#X obj 81 392 del 2000;
#X obj 163 173 spigot;
#X obj 163 150 r \$2v;
#X obj 202 150 r fx\$1;
#X obj 255 371 del 100;
#X obj 255 392 spigot;
#X obj 255 324 r exp_desel\$1;
#X obj 255 348 sel 1;
#X text 299 346 update value each time expression is deselected;
#X obj 344 373 r fx\$1;
#X obj 163 195 debounce 70;
#X obj 171 217 del 100;
#X obj 177 238 del 200;
#X obj 188 280 del 400;
#X obj 183 259 del 300;
#X obj 192 301 del 500;
#X text 44 345 set initial value;
#X text 143 92 <\$1>;
#X text 230 92 <\$2>;
#X text 25 63 Initialize [latency_fix] with following parameters:;
#X text 109 108 <encoder_in_nr> <fx_nr>;
#X text 53 29 Debounce value sent to the OLED screen.;
#X connect 0 0 2 0;
#X connect 1 0 0 1;
#X connect 3 0 4 0;
#X connect 4 0 0 0;
#X connect 5 0 14 0;
#X connect 6 0 5 0;
#X connect 7 0 5 1;
#X connect 8 0 9 0;
#X connect 9 0 0 0;
#X connect 10 0 11 0;
#X connect 11 0 8 0;
#X connect 13 0 9 1;
#X connect 14 0 0 0;
#X connect 14 0 17 0;
#X connect 14 0 15 0;
#X connect 14 0 16 0;
#X connect 14 0 18 0;
#X connect 14 0 19 0;
#X connect 15 0 0 0;
#X connect 16 0 0 0;
#X connect 17 0 0 0;
#X connect 18 0 0 0;
#X connect 19 0 0 0;
