#N canvas -9 -9 1920 976 12;
#X obj 1088 517 sel 1, f 10;
#X obj 1088 468 tgl 15 0 empty empty empty 17 7 0 10 -262144 -1 -1
0 1;
#X obj 898 585 tgl 15 0 empty empty empty 17 7 0 10 -262144 -1 -1 0
1;
#X obj 727 585 tgl 15 0 empty empty empty 17 7 0 10 -262144 -1 -1 0
1;
#X obj 1088 536 bng 15 250 50 0 empty empty empty 17 7 0 10 -262144
-1 -1;
#X obj 1155 536 bng 15 250 50 0 empty empty empty 17 7 0 10 -262144
-1 -1;
#X msg 1105 551 0;
#X msg 1074 551 1;
#X msg 1174 551 0;
#X msg 1143 551 1;
#X obj 1074 570 tgl 15 0 empty empty empty 17 7 0 10 -262144 -1 -1
0 1;
#X obj 1143 570 tgl 15 0 empty empty empty 17 7 0 10 -262144 -1 -1
0 1;
#X obj 843 517 sel 1, f 10;
#X obj 843 502 tgl 15 0 empty empty empty 17 7 0 10 -262144 -1 -1 0
1;
#X obj 843 536 bng 15 250 50 0 empty empty empty 17 7 0 10 -262144
-1 -1;
#X obj 910 536 bng 15 250 50 0 empty empty empty 17 7 0 10 -262144
-1 -1;
#X msg 860 551 0;
#X msg 829 551 1;
#X msg 929 551 0;
#X msg 898 551 1;
#X obj 829 570 tgl 15 0 empty empty empty 17 7 0 10 -262144 -1 -1 0
1;
#X obj 898 570 tgl 15 0 empty empty empty 17 7 0 10 -262144 -1 -1 0
1;
#X msg 910 464 1;
#X msg 843 464 0;
#X obj 725 734 s bela_digitalOut19;
#X obj 898 734 s bela_digitalOut21;
#X obj 1088 449 del 200;
#X obj 1088 502 tgl 15 0 empty empty empty 17 7 0 10 -262144 -1 -1
0 1;
#X obj 843 414 tgl 15 0 empty empty empty 17 7 0 10 -262144 -1 -1 0
1;
#X obj 843 448 bng 15 250 50 0 empty empty empty 17 7 0 10 -262144
-1 -1;
#X obj 910 448 bng 15 250 50 0 empty empty empty 17 7 0 10 -262144
-1 -1;
#X obj 739 337 r expIn;
#X obj 671 337 r expOut;
#X obj 671 536 bng 15 250 50 0 empty empty empty 17 7 0 10 -262144
-1 -1;
#X obj 739 536 bng 15 250 50 0 empty empty empty 17 7 0 10 -262144
-1 -1;
#X msg 688 551 0;
#X msg 657 551 1;
#X msg 758 551 0;
#X msg 727 551 1;
#X obj 657 570 tgl 15 0 empty empty empty 17 7 0 10 -262144 -1 -1 0
1;
#X obj 727 570 tgl 15 0 empty empty empty 17 7 0 10 -262144 -1 -1 0
1;
#X obj 843 395 r fx2.2;
#X obj 843 429 sel 0, f 10;
#X obj 1088 430 r skip_l;
#X obj 1148 430 r skip_r;
#X msg 739 356 0;
#X msg 671 356 1;
#X obj 671 375 tgl 15 0 empty empty empty 17 7 0 10 -262144 -1 -1 0
1;
#X obj 710 375 r fx2.2;
#X obj 671 395 spigot;
#X obj 727 414 sel 0;
#X obj 727 481 del 10;
#X obj 898 500 bng 15 250 50 0 empty empty empty 17 7 0 10 -262144
-1 -1;
#X obj 937 604 tgl 15 0 empty empty empty 17 7 0 10 -262144 -1 -1 0
1;
#X obj 829 585 r bypass;
#X obj 898 676 spigot;
#X obj 880 657 f;
#X obj 898 638 del 1, f 6;
#X obj 898 619 sel 1, f 6;
#X obj 764 604 tgl 15 0 empty empty empty 17 7 0 10 -262144 -1 -1 0
1;
#X obj 725 676 spigot;
#X obj 707 657 f;
#X obj 725 638 del 1, f 6;
#X obj 725 619 sel 1, f 6;
#X obj 937 696 sel 0;
#X msg 937 715 0;
#X obj 764 696 sel 0;
#X msg 764 715 0;
#X obj 331 468 tgl 15 0 empty empty empty 17 7 0 10 -262144 -1 -1 0
1;
#X obj 88 421 r bang;
#X obj 331 411 bng 15 250 50 0 empty empty empty 17 7 0 10 -262144
-1 -1;
#X obj 331 392 spigot;
#X obj 370 373 r fx4;
#X obj 331 536 bng 15 250 50 0 empty empty empty 17 7 0 10 -262144
-1 -1;
#X obj 398 536 bng 15 250 50 0 empty empty empty 17 7 0 10 -262144
-1 -1;
#X msg 348 551 0;
#X msg 317 551 1;
#X msg 417 551 0;
#X msg 386 551 1;
#X obj 317 570 tgl 15 0 empty empty empty 17 7 0 10 -262144 -1 -1 0
1;
#X obj 387 570 tgl 15 0 empty empty empty 17 7 0 10 -262144 -1 -1 0
1;
#X obj 88 486 bng 15 250 50 0 empty empty empty 17 7 0 10 -262144 -1
-1;
#X obj 88 460 spigot;
#X obj 127 442 r fx4;
#X obj 87 536 bng 15 250 50 0 empty empty empty 17 7 0 10 -262144 -1
-1;
#X obj 154 536 bng 15 250 50 0 empty empty empty 17 7 0 10 -262144
-1 -1;
#X msg 104 551 0;
#X msg 73 551 1;
#X msg 173 551 0;
#X msg 142 551 1;
#X obj 73 570 tgl 15 0 empty empty empty 17 7 0 10 -262144 -1 -1 0
1;
#X obj 142 570 tgl 15 0 empty empty empty 17 7 0 10 -262144 -1 -1 0
1;
#X obj 87 502 tgl 15 0 empty empty empty 17 7 0 10 -262144 -1 -1 0
1;
#X obj 331 184 debounce 100;
#X obj 346 430 del 100;
#X obj 28 357 r stop_loop;
#X obj 89 376 del 1;
#X obj 109 357 r clear_array;
#X obj 396 455 r clear_array;
#X obj 397 477 del 300;
#X obj 331 496 del 300;
#X text 47 35 Control bicolor LED to provide visual feedback for different
states and changes., f 82;
#X text 33 338 is stoped or cleared;
#X text 33 323 turn LED blue if loop;
#X obj 331 165 r flash;
#X text 666 304 turn LED red if expression;
#X text 408 496 flash LED red for 300ms;
#X text 922 488 purple achieved by;
#X text 922 503 alternating between;
#X text 1080 394 flash LED purple for;
#X text 1080 409 200ms on effect skip;
#X text 780 603 turn LED on/off;
#X text 793 617 with [bypass];
#X text 840 360 turn LED purple for;
#X text 841 375 alternative fx mode;
#X text 695 733 red;
#X text 911 755 digital pin 10;
#X text 1039 734 blue;
#X text 738 756 digital pin 8;
#X text 82 704 Detailed information on Bela's digital outputs, f 71
;
#X text 82 719 and instructions for controlling LEDs at:, f 71;
#X text 82 735 https://learn.bela.io/tutorials/pure-data/connecting/digital-output/
, f 71;
#X obj 843 483 metro 10;
#X obj 1088 483 metro 10;
#X obj 427 312 r clear_array;
#X obj 331 351 spigot;
#X msg 397 332 1;
#X msg 427 332 0;
#X obj 87 517 sel 0, f 10;
#X msg 89 395 0;
#X obj 331 517 sel 0, f 10;
#X obj 370 237 + 1;
#X obj 331 329 spigot;
#X obj 370 293 tgl 15 0 empty empty empty 17 7 0 10 -262144 -1 -1 1
1;
#X msg 346 449 0;
#X obj 428 274 loadbang;
#X obj 334 217 r loop_status;
#X obj 334 237 * -1;
#X obj 397 293 r clock_set;
#X text 410 511 when loop buffer is cleared;
#X text 121 499 recording to loop;
#X text 119 485 turn LED red while;
#X text 285 129 flash LED red for 100ms;
#X text 285 144 each time loop restarts;
#X text 434 219 recording to loop;
#X text 432 205 block action while;
#X text 495 278 block action if;
#X text 497 292 no clock is set;
#X text 694 318 mode is selected;
#X text 922 517 red and blue each 10ms;
#X connect 0 0 4 0;
#X connect 0 1 5 0;
#X connect 1 0 123 0;
#X connect 2 0 55 0;
#X connect 2 0 56 1;
#X connect 3 0 61 1;
#X connect 3 0 60 0;
#X connect 4 0 7 0;
#X connect 4 0 6 0;
#X connect 5 0 9 0;
#X connect 5 0 8 0;
#X connect 6 0 11 0;
#X connect 7 0 10 0;
#X connect 8 0 10 0;
#X connect 9 0 11 0;
#X connect 10 0 3 0;
#X connect 11 0 2 0;
#X connect 12 0 14 0;
#X connect 12 1 15 0;
#X connect 13 0 12 0;
#X connect 14 0 17 0;
#X connect 14 0 16 0;
#X connect 15 0 19 0;
#X connect 15 0 18 0;
#X connect 16 0 21 0;
#X connect 17 0 20 0;
#X connect 18 0 20 0;
#X connect 19 0 21 0;
#X connect 20 0 2 0;
#X connect 21 0 3 0;
#X connect 22 0 122 0;
#X connect 23 0 14 0;
#X connect 23 0 122 0;
#X connect 26 0 1 0;
#X connect 27 0 0 0;
#X connect 28 0 42 0;
#X connect 29 0 23 0;
#X connect 30 0 22 0;
#X connect 31 0 45 0;
#X connect 31 0 34 0;
#X connect 32 0 46 0;
#X connect 32 0 33 0;
#X connect 33 0 36 0;
#X connect 33 0 35 0;
#X connect 34 0 38 0;
#X connect 34 0 37 0;
#X connect 35 0 40 0;
#X connect 36 0 39 0;
#X connect 37 0 39 0;
#X connect 38 0 40 0;
#X connect 39 0 2 0;
#X connect 40 0 3 0;
#X connect 41 0 28 0;
#X connect 42 0 29 0;
#X connect 42 1 30 0;
#X connect 43 0 1 0;
#X connect 43 0 26 0;
#X connect 44 0 1 0;
#X connect 44 0 26 0;
#X connect 45 0 47 0;
#X connect 46 0 47 0;
#X connect 47 0 49 0;
#X connect 48 0 49 1;
#X connect 49 0 28 0;
#X connect 49 0 50 0;
#X connect 50 0 51 0;
#X connect 51 0 3 0;
#X connect 51 0 52 0;
#X connect 52 0 2 0;
#X connect 53 0 55 1;
#X connect 53 0 58 0;
#X connect 53 0 64 0;
#X connect 54 0 53 0;
#X connect 54 0 59 0;
#X connect 55 0 25 0;
#X connect 56 0 55 0;
#X connect 57 0 56 0;
#X connect 58 0 57 0;
#X connect 59 0 60 1;
#X connect 59 0 63 0;
#X connect 59 0 66 0;
#X connect 60 0 24 0;
#X connect 61 0 60 0;
#X connect 62 0 61 0;
#X connect 63 0 62 0;
#X connect 64 0 65 0;
#X connect 65 0 25 0;
#X connect 66 0 67 0;
#X connect 67 0 24 0;
#X connect 68 0 130 0;
#X connect 69 0 82 0;
#X connect 70 0 68 0;
#X connect 70 0 94 0;
#X connect 71 0 70 0;
#X connect 72 0 71 1;
#X connect 73 0 76 0;
#X connect 73 0 75 0;
#X connect 74 0 78 0;
#X connect 74 0 77 0;
#X connect 75 0 80 0;
#X connect 76 0 79 0;
#X connect 77 0 79 0;
#X connect 78 0 80 0;
#X connect 79 0 2 0;
#X connect 80 0 3 0;
#X connect 81 0 92 0;
#X connect 82 0 81 0;
#X connect 83 0 82 1;
#X connect 84 0 87 0;
#X connect 84 0 86 0;
#X connect 85 0 89 0;
#X connect 85 0 88 0;
#X connect 86 0 91 0;
#X connect 87 0 90 0;
#X connect 88 0 90 0;
#X connect 89 0 91 0;
#X connect 90 0 2 0;
#X connect 91 0 3 0;
#X connect 92 0 128 0;
#X connect 93 0 132 0;
#X connect 94 0 134 0;
#X connect 95 0 96 0;
#X connect 96 0 129 0;
#X connect 97 0 96 0;
#X connect 98 0 74 0;
#X connect 98 0 99 0;
#X connect 99 0 74 0;
#X connect 99 0 100 0;
#X connect 100 0 73 0;
#X connect 104 0 93 0;
#X connect 122 0 13 0;
#X connect 123 0 27 0;
#X connect 124 0 127 0;
#X connect 125 0 71 0;
#X connect 126 0 125 1;
#X connect 127 0 125 1;
#X connect 128 0 84 0;
#X connect 128 1 85 0;
#X connect 129 0 92 0;
#X connect 130 0 73 0;
#X connect 130 1 74 0;
#X connect 131 0 133 0;
#X connect 132 0 125 0;
#X connect 133 0 132 1;
#X connect 134 0 68 0;
#X connect 135 0 133 0;
#X connect 135 0 127 0;
#X connect 136 0 137 0;
#X connect 137 0 131 0;
#X connect 138 0 126 0;
