#N canvas -9 -9 1920 976 12;
#X obj -728 55 cnv 15 830 434 empty empty empty 20 12 0 14 -232576
-66577 0;
#X obj -900 -220 cnv 15 100 60 empty empty empty 20 12 0 14 -233017
-66577 0;
#X obj 102 55 cnv 15 2000 434 empty empty empty 20 12 0 14 -203904
-66577 0;
#X obj 2102 55 cnv 15 830 434 empty empty empty 20 12 0 14 -204786
-66577 0;
#X obj 2932 55 cnv 15 180 434 empty empty empty 20 12 0 14 -261682
-66577 0;
#X obj 101 489 cnv 15 303 190 empty empty empty 20 12 0 14 -262130
-66577 0;
#X obj -57 194 * 100;
#X obj -57 96 r depth;
#X obj -189 96 r rate;
#X obj -345 96 r scanner;
#X obj -345 194 * 100;
#X obj -501 196 * 100;
#X obj -692 143 r fx1;
#X obj -692 162 sel 1;
#X obj -345 249 change;
#X obj -189 249 change;
#X obj -57 249 change;
#X obj -501 269 change;
#X obj -692 432 oscformat scanner_vibrato;
#X obj -189 171 spigot;
#X obj -57 171 spigot;
#X obj -345 171 spigot;
#X obj -501 173 spigot;
#X obj -501 97 r d/w_scn;
#X obj 586 152 * 100;
#X obj 953 151 * 100;
#X obj 785 151 * 100;
#X obj 227 158 sel 1;
#X obj 953 211 change;
#X obj 407 211 change;
#X obj 586 211 change;
#X obj 785 230 change;
#X obj 407 124 spigot;
#X obj 586 124 spigot;
#X obj 953 124 spigot;
#X obj 785 124 spigot;
#X obj 785 84 r d/w_del;
#X obj 953 85 r delay;
#X obj 407 85 r deltime;
#X obj 586 85 r feedback;
#X obj 2773 158 * 100;
#X obj 2466 156 * 100;
#X obj 2309 158 * 100;
#X obj 2466 247 change;
#X obj 2617 247 change;
#X obj 2773 247 change;
#X obj 2309 266 change;
#X obj 2617 133 spigot;
#X obj 2773 133 spigot;
#X obj 2466 133 spigot;
#X obj 2309 135 spigot;
#X obj 2309 95 r d/w_rev;
#X obj 2617 156 * 100;
#X obj 2466 94 r reverb;
#X obj 2617 94 r revtime;
#X obj 2773 94 r damping;
#X obj 1447 211 change;
#X obj 1628 211 change;
#X obj 1447 124 spigot;
#X obj 1628 124 spigot;
#X obj 1447 85 r ramptime;
#X obj 1628 85 r rolloff;
#X obj 146 451 spigot;
#X obj 192 451 tgl 15 0 empty empty empty 17 7 0 10 -262144 -1 -1 1
1;
#X obj 356 413 loadbang;
#X obj -660 268 t b f;
#X obj -620 268 t b f;
#X obj -580 268 t b f;
#X obj 178 230 t b f;
#X obj 218 230 t b f;
#X obj 258 230 t b f;
#X obj 146 413 oscformat tape_delay_1;
#X obj 1880 230 t b f;
#X obj 1920 230 t b f;
#X obj 1960 230 t b f;
#X obj 1848 413 oscformat tape_delay_2;
#X obj 227 139 r fx2.1;
#X obj 2125 212 sel 1;
#X obj 2156 266 t b f;
#X obj 2196 266 t b f;
#X obj 2236 266 t b f;
#X obj 2125 193 r fx3;
#X obj 2124 432 oscformat freeverb;
#X obj -692 181 bng 15 250 50 0 empty empty empty 17 7 0 10 -262144
-1 -1;
#X obj 146 196 bng 15 250 50 0 empty empty empty 17 7 0 10 -262144
-1 -1;
#X obj 1848 196 bng 15 250 50 0 empty empty empty 17 7 0 10 -262144
-1 -1;
#X obj 2124 231 bng 15 250 50 0 empty empty empty 17 7 0 10 -262144
-1 -1;
#X obj 227 177 spigot;
#X obj 266 158 r fx2;
#X obj 1848 158 sel 1;
#X obj 1929 177 spigot;
#X obj 1887 158 r fx2;
#X obj 1841 139 r fx2.2;
#X obj 1848 432 spigot;
#X obj 2006 413 r fx2.2;
#X obj 146 432 spigot;
#X obj 304 413 r fx2.1;
#X obj -692 287 pack f f f f, f 21;
#X obj 146 249 pack f f f f, f 21;
#X obj 1848 249 pack f f f f, f 21;
#X obj 2124 285 pack f f f f, f 21;
#X obj -502 469 oscformat d/w_scn_exp;
#X obj -347 469 oscformat scanner_exp;
#X obj -192 469 oscformat rate_exp;
#X obj -59 469 oscformat depth_exp;
#X obj -502 306 spigot;
#X obj -456 382 del 1;
#X obj -456 401 s exp_fx1;
#X obj -347 306 spigot;
#X obj -301 382 del 1;
#X obj -301 401 s exp_fx1;
#X obj -192 306 spigot;
#X obj -146 382 del 1;
#X obj -146 401 s exp_fx1;
#X obj -59 306 spigot;
#X obj -13 382 del 1;
#X obj -13 401 s exp_fx1;
#X obj -456 306 change;
#X obj -301 306 change;
#X obj -146 306 change;
#X obj -13 306 change;
#X obj -653 348 tgl 15 0 empty empty empty 17 7 0 10 -262144 -1 -1
1 1;
#X obj -692 362 spigot;
#X obj -585 311 r expIn;
#X obj -653 311 r expOut;
#X msg -653 330 1;
#X msg -585 330 0;
#X obj -635 349 loadbang;
#X obj -653 162 r exp_fx1;
#X obj 2310 304 spigot;
#X obj 2356 323 del 1;
#X obj 2466 304 spigot;
#X obj 2512 323 del 1;
#X obj 2616 304 spigot;
#X obj 2662 323 del 1;
#X obj 2773 304 spigot;
#X obj 2819 323 del 1;
#X obj 2356 304 change;
#X obj 2512 304 change;
#X obj 2662 304 change;
#X obj 2819 304 change;
#X obj 2356 342 s exp_fx3;
#X obj 2512 342 s exp_fx3;
#X obj 2662 342 s exp_fx3;
#X obj 2819 342 s exp_fx3;
#X obj 2310 469 oscformat d/w_rev_exp;
#X obj 2466 469 oscformat reverb_exp;
#X obj 2616 469 oscformat revtime_exp;
#X obj 2773 469 oscformat damping_exp;
#X obj 2163 352 tgl 15 0 empty empty empty 17 7 0 10 -262144 -1 -1
1 1;
#X obj 2124 366 spigot;
#X obj 2231 315 r expIn;
#X obj 2163 315 r expOut;
#X msg 2163 334 1;
#X msg 2231 334 0;
#X obj 2181 353 loadbang;
#X obj 2171 212 r exp_fx3;
#X obj 405 268 spigot;
#X obj 451 287 del 1;
#X obj 592 268 spigot;
#X obj 638 287 del 1;
#X obj 783 268 spigot;
#X obj 829 287 del 1;
#X obj 951 268 spigot;
#X obj 998 287 del 1;
#X obj 1461 268 spigot;
#X obj 1507 287 del 1;
#X obj 1642 268 spigot;
#X obj 1688 287 del 1;
#X obj 951 469 oscformat delay_exp;
#X obj 1688 306 s exp_fx2.2;
#X obj 1507 306 s exp_fx2.2;
#X obj 638 306 s exp_fx2.1;
#X obj 451 306 s exp_fx2.1;
#X obj 451 268 change;
#X obj 638 268 change;
#X obj 829 268 change;
#X obj 998 268 change;
#X obj 1507 268 change;
#X obj 1688 268 change;
#X obj 783 469 oscformat d/w_del_exp;
#X obj 829 306 s exp_fx2.1;
#X obj 998 306 s exp_fx2.1;
#X obj 1112 469 oscformat d/w_del_2_exp;
#X obj 1291 469 oscformat delay_2_exp;
#X obj 405 469 oscformat deltime_exp;
#X obj 592 469 oscformat feedback_exp;
#X obj 146 177 r exp_fx2.1;
#X obj 1848 177 r exp_fx2.2;
#X obj 185 321 tgl 15 0 empty empty empty 17 7 0 10 -262144 -1 -1 1
1;
#X obj 146 335 spigot;
#X obj 253 284 r expIn;
#X obj 185 284 r expOut;
#X msg 185 303 1;
#X msg 253 303 0;
#X obj 203 322 loadbang;
#X obj 1887 324 tgl 15 0 empty empty empty 17 7 0 10 -262144 -1 -1
1 1;
#X obj 1848 338 spigot;
#X obj 1955 287 r expIn;
#X obj 1887 287 r expOut;
#X msg 1887 306 1;
#X msg 1955 306 0;
#X obj 1905 325 loadbang;
#X obj 1461 469 oscformat ramptime_exp;
#X obj 1642 469 oscformat rolloff_exp;
#X obj 1802 249 spigot;
#X obj 297 249 spigot;
#X obj 1112 267 spigot;
#X obj 1158 286 del 1;
#X obj 1291 267 spigot;
#X obj 1338 286 del 1;
#X obj 1158 267 change;
#X obj 1338 267 change;
#X obj 1158 305 s exp_fx2.2;
#X obj 1338 305 s exp_fx2.2;
#X obj 336 158 tgl 15 0 empty empty empty 17 7 0 10 -262144 -1 -1 0
1;
#X obj -462 154 r exp_desel1;
#X obj -306 153 r exp_desel2;
#X obj -150 152 r exp_desel3;
#X obj -18 153 r exp_desel4;
#X obj 446 105 r exp_desel3;
#X obj 625 105 r exp_desel4;
#X obj 824 105 r exp_desel1;
#X obj 992 106 r exp_desel2;
#X obj 1486 105 r exp_desel3;
#X obj 1667 105 r exp_desel4;
#X obj 2348 116 r exp_desel1;
#X obj 2505 115 r exp_desel2;
#X obj 2656 114 r exp_desel3;
#X obj 2812 114 r exp_desel4;
#X obj 356 432 delay 3000;
#X obj -189 194 * 100;
#X obj -692 102 loadbang;
#X obj -692 121 del 3001;
#X obj 3032 203 * 100;
#X obj 3032 253 change;
#X obj 2977 183 sel 1;
#X obj 2976 202 bng 15 250 50 0 empty empty empty 17 7 0 10 -262144
-1 -1;
#X obj 2976 432 oscformat looper;
#X obj 3032 180 r loop1;
#X obj 2977 164 r fx4;
#X obj 234 654 print backward;
#X obj 146 560 list prepend send;
#X obj 146 579 list trim;
#X obj 146 636 netsend -u -b;
#X msg 146 617 connect bela.local 7562;
#X obj 146 598 loadbang;
#X obj 146 488 spigot;
#X obj 192 488 r desel_oled;
#X obj 155 541 oscformat desel_oled;
#X obj 155 522 sel 0;
#X obj 192 507 tgl 15 0 empty empty empty 17 7 0 10 -262144 -1 -1 1
1;
#X obj 207 507 loadbang;
#X text -718 58 Scanner Vibrato to OLED;
#X text 110 62 Tape Delay to OLED;
#X text 2121 63 Freeverb to OLED;
#X text -361 68 receive value for each parameter;
#X text -441 134 block value that is selected to be used with expression
pedal, f 61;
#X text -705 249 pack values into one message;
#X text -353 422 send bang to reload screen if select changed;
#X text -452 212 scale up small numbers to be displayed as integers
, f 62;
#X text -398 330 change visuals on screen based on expression select
;
#X text -720 617 OSC to OLED (O2O) example code on: https://github.com/giuliomoro/O2O
, f 70;
#X text -719 590 https://learn.bela.io/using-bela/bela-techniques/using-an-oled-screen/
, f 70;
#X text -719 531 Transmit OSC messages to drive OLED screen connected
to the I2C2 pins, f 70;
#X text -719 544 of your Bela board., f 70;
#X text 271 568 format and send, f 17;
#X text 271 581 OSC meassages, f 17;
#X text 286 503 GUI is called up;
#X text 283 488 block messages if;
#X text 204 466 initialization process;
#X text 210 452 block messages during;
#X text -684 405 if expression is selected;
#X text -680 388 block initial screen, f 25;
#X obj -463 287 r exp_sel1/1;
#X obj -308 287 r exp_sel2/1;
#X obj -153 287 r exp_sel3/1;
#X obj -20 287 r exp_sel4/1;
#X obj 445 249 r exp_sel3/2.1;
#X obj 631 249 r exp_sel4/2.1;
#X obj 822 249 r exp_sel1/2;
#X obj 990 249 r exp_sel2/2;
#X obj 1151 248 r exp_sel1/2;
#X obj 1330 248 r exp_sel2/2;
#X obj 1500 249 r exp_sel3/2.2;
#X obj 1681 249 r exp_sel4/2.2;
#X obj 2349 285 r exp_sel1/3;
#X obj 2505 285 r exp_sel2/3;
#X obj 2655 285 r exp_sel3/3;
#X obj 2812 285 r exp_sel4/3;
#X obj 2976 285 pack f, f 7;
#X text 2962 69 Looper to OLED;
#X text -719 574 For detailed instructions and information on this
topic refer to:, f 70;
#X obj -501 237 latency_fix 1 1;
#X obj -345 230 latency_fix 1 2;
#X obj -189 230 latency_fix 1 3;
#X obj -57 230 latency_fix 1 4;
#X obj 407 184 latency_fix 2 3;
#X obj 586 183 latency_fix 2 4;
#X obj 785 188 latency_fix 2 1;
#X obj 953 183 latency_fix 2 2;
#X obj 1447 169 latency_fix 2 3;
#X obj 1628 168 latency_fix 2 4;
#X obj 2309 206 latency_fix 3 1;
#X obj 2466 205 latency_fix 3 2;
#X obj 2617 205 latency_fix 3 3;
#X obj 2773 205 latency_fix 3 4;
#X obj 3032 227 latency_fix 4 1;
#X connect 6 0 296 0;
#X connect 7 0 20 0;
#X connect 8 0 19 0;
#X connect 9 0 21 0;
#X connect 10 0 294 0;
#X connect 11 0 293 0;
#X connect 12 0 13 0;
#X connect 13 0 83 0;
#X connect 14 0 65 0;
#X connect 15 0 66 0;
#X connect 16 0 67 0;
#X connect 17 0 97 0;
#X connect 18 0 62 0;
#X connect 19 0 231 0;
#X connect 20 0 6 0;
#X connect 21 0 10 0;
#X connect 22 0 11 0;
#X connect 23 0 22 0;
#X connect 24 0 298 0;
#X connect 25 0 300 0;
#X connect 26 0 299 0;
#X connect 27 0 87 0;
#X connect 28 0 68 0;
#X connect 28 0 72 0;
#X connect 29 0 69 0;
#X connect 30 0 70 0;
#X connect 31 0 98 0;
#X connect 31 0 99 0;
#X connect 32 0 297 0;
#X connect 33 0 24 0;
#X connect 34 0 25 0;
#X connect 35 0 26 0;
#X connect 36 0 35 0;
#X connect 37 0 34 0;
#X connect 38 0 32 0;
#X connect 39 0 33 0;
#X connect 40 0 306 0;
#X connect 41 0 304 0;
#X connect 42 0 303 0;
#X connect 43 0 78 0;
#X connect 44 0 79 0;
#X connect 45 0 80 0;
#X connect 46 0 100 0;
#X connect 47 0 52 0;
#X connect 48 0 40 0;
#X connect 49 0 41 0;
#X connect 50 0 42 0;
#X connect 51 0 50 0;
#X connect 52 0 305 0;
#X connect 53 0 49 0;
#X connect 54 0 47 0;
#X connect 55 0 48 0;
#X connect 56 0 73 0;
#X connect 57 0 74 0;
#X connect 58 0 301 0;
#X connect 59 0 302 0;
#X connect 60 0 58 0;
#X connect 61 0 59 0;
#X connect 62 0 247 0;
#X connect 63 0 62 1;
#X connect 64 0 230 0;
#X connect 65 0 97 0;
#X connect 65 1 97 1;
#X connect 66 0 97 0;
#X connect 66 1 97 2;
#X connect 67 0 97 0;
#X connect 67 1 97 3;
#X connect 68 0 98 0;
#X connect 68 1 98 1;
#X connect 69 0 98 0;
#X connect 69 1 98 2;
#X connect 70 0 98 0;
#X connect 70 1 98 3;
#X connect 71 0 95 0;
#X connect 72 0 99 0;
#X connect 72 1 99 1;
#X connect 73 0 99 0;
#X connect 73 1 99 2;
#X connect 74 0 99 0;
#X connect 74 1 99 3;
#X connect 75 0 93 0;
#X connect 76 0 27 0;
#X connect 76 0 215 0;
#X connect 77 0 86 0;
#X connect 78 0 100 0;
#X connect 78 1 100 1;
#X connect 79 0 100 0;
#X connect 79 1 100 2;
#X connect 80 0 100 0;
#X connect 80 1 100 3;
#X connect 81 0 77 0;
#X connect 82 0 62 0;
#X connect 83 0 97 0;
#X connect 84 0 98 0;
#X connect 85 0 99 0;
#X connect 86 0 100 0;
#X connect 87 0 84 0;
#X connect 88 0 87 1;
#X connect 89 0 90 0;
#X connect 90 0 85 0;
#X connect 91 0 90 1;
#X connect 92 0 89 0;
#X connect 92 0 205 1;
#X connect 93 0 62 0;
#X connect 94 0 93 1;
#X connect 95 0 62 0;
#X connect 96 0 95 1;
#X connect 97 0 105 0;
#X connect 97 0 108 0;
#X connect 97 0 111 0;
#X connect 97 0 114 0;
#X connect 97 0 122 0;
#X connect 98 0 190 0;
#X connect 98 0 206 0;
#X connect 99 0 197 0;
#X connect 99 0 205 0;
#X connect 100 0 129 0;
#X connect 100 0 135 0;
#X connect 100 0 133 0;
#X connect 100 0 131 0;
#X connect 100 0 150 0;
#X connect 101 0 247 0;
#X connect 102 0 247 0;
#X connect 103 0 247 0;
#X connect 104 0 247 0;
#X connect 105 0 101 0;
#X connect 106 0 107 0;
#X connect 108 0 102 0;
#X connect 109 0 110 0;
#X connect 111 0 103 0;
#X connect 112 0 113 0;
#X connect 114 0 104 0;
#X connect 115 0 116 0;
#X connect 117 0 106 0;
#X connect 118 0 109 0;
#X connect 119 0 112 0;
#X connect 120 0 115 0;
#X connect 121 0 122 1;
#X connect 122 0 18 0;
#X connect 123 0 126 0;
#X connect 124 0 125 0;
#X connect 125 0 121 0;
#X connect 126 0 121 0;
#X connect 127 0 121 0;
#X connect 128 0 83 0;
#X connect 129 0 145 0;
#X connect 130 0 141 0;
#X connect 131 0 146 0;
#X connect 132 0 142 0;
#X connect 133 0 147 0;
#X connect 134 0 143 0;
#X connect 135 0 148 0;
#X connect 136 0 144 0;
#X connect 137 0 130 0;
#X connect 138 0 132 0;
#X connect 139 0 134 0;
#X connect 140 0 136 0;
#X connect 145 0 247 0;
#X connect 146 0 247 0;
#X connect 147 0 247 0;
#X connect 148 0 247 0;
#X connect 149 0 150 1;
#X connect 150 0 82 0;
#X connect 151 0 154 0;
#X connect 152 0 153 0;
#X connect 153 0 149 0;
#X connect 154 0 149 0;
#X connect 155 0 149 0;
#X connect 156 0 86 0;
#X connect 157 0 185 0;
#X connect 158 0 173 0;
#X connect 159 0 186 0;
#X connect 160 0 172 0;
#X connect 161 0 180 0;
#X connect 162 0 181 0;
#X connect 163 0 169 0;
#X connect 164 0 182 0;
#X connect 165 0 203 0;
#X connect 166 0 171 0;
#X connect 167 0 204 0;
#X connect 168 0 170 0;
#X connect 169 0 247 0;
#X connect 174 0 158 0;
#X connect 175 0 160 0;
#X connect 176 0 162 0;
#X connect 177 0 164 0;
#X connect 178 0 166 0;
#X connect 179 0 168 0;
#X connect 180 0 247 0;
#X connect 183 0 247 0;
#X connect 184 0 247 0;
#X connect 185 0 247 0;
#X connect 186 0 247 0;
#X connect 187 0 84 0;
#X connect 188 0 85 0;
#X connect 189 0 190 1;
#X connect 190 0 71 0;
#X connect 191 0 194 0;
#X connect 192 0 193 0;
#X connect 193 0 189 0;
#X connect 194 0 189 0;
#X connect 195 0 189 0;
#X connect 196 0 197 1;
#X connect 197 0 75 0;
#X connect 198 0 201 0;
#X connect 199 0 200 0;
#X connect 200 0 196 0;
#X connect 201 0 196 0;
#X connect 202 0 196 0;
#X connect 203 0 247 0;
#X connect 204 0 247 0;
#X connect 205 0 167 0;
#X connect 205 0 207 0;
#X connect 205 0 209 0;
#X connect 205 0 165 0;
#X connect 206 0 157 0;
#X connect 206 0 163 0;
#X connect 206 0 161 0;
#X connect 206 0 159 0;
#X connect 207 0 183 0;
#X connect 208 0 213 0;
#X connect 209 0 184 0;
#X connect 210 0 214 0;
#X connect 211 0 208 0;
#X connect 212 0 210 0;
#X connect 215 0 206 1;
#X connect 216 0 22 1;
#X connect 217 0 21 1;
#X connect 218 0 19 1;
#X connect 219 0 20 1;
#X connect 220 0 32 1;
#X connect 221 0 33 1;
#X connect 222 0 35 1;
#X connect 223 0 34 1;
#X connect 224 0 58 1;
#X connect 225 0 59 1;
#X connect 226 0 50 1;
#X connect 227 0 49 1;
#X connect 228 0 47 1;
#X connect 229 0 48 1;
#X connect 230 0 63 0;
#X connect 231 0 295 0;
#X connect 232 0 233 0;
#X connect 233 0 83 0;
#X connect 234 0 307 0;
#X connect 235 0 290 0;
#X connect 236 0 237 0;
#X connect 237 0 290 0;
#X connect 238 0 62 0;
#X connect 239 0 234 0;
#X connect 240 0 236 0;
#X connect 242 0 243 0;
#X connect 243 0 244 0;
#X connect 244 1 241 0;
#X connect 245 0 244 0;
#X connect 246 0 245 0;
#X connect 247 0 242 0;
#X connect 248 0 251 0;
#X connect 249 0 242 0;
#X connect 250 0 249 0;
#X connect 251 0 250 0;
#X connect 251 0 247 1;
#X connect 252 0 251 0;
#X connect 274 0 105 1;
#X connect 274 0 117 0;
#X connect 275 0 108 1;
#X connect 275 0 118 0;
#X connect 276 0 111 1;
#X connect 276 0 119 0;
#X connect 277 0 114 1;
#X connect 277 0 120 0;
#X connect 278 0 157 1;
#X connect 278 0 174 0;
#X connect 279 0 159 1;
#X connect 279 0 175 0;
#X connect 280 0 161 1;
#X connect 280 0 176 0;
#X connect 281 0 163 1;
#X connect 281 0 177 0;
#X connect 282 0 207 1;
#X connect 282 0 211 0;
#X connect 283 0 209 1;
#X connect 283 0 212 0;
#X connect 284 0 165 1;
#X connect 284 0 178 0;
#X connect 285 0 167 1;
#X connect 285 0 179 0;
#X connect 286 0 129 1;
#X connect 286 0 137 0;
#X connect 287 0 131 1;
#X connect 287 0 138 0;
#X connect 288 0 133 1;
#X connect 288 0 139 0;
#X connect 289 0 135 1;
#X connect 289 0 140 0;
#X connect 290 0 238 0;
#X connect 293 0 17 0;
#X connect 294 0 14 0;
#X connect 295 0 15 0;
#X connect 296 0 16 0;
#X connect 297 0 29 0;
#X connect 298 0 30 0;
#X connect 299 0 31 0;
#X connect 300 0 28 0;
#X connect 301 0 56 0;
#X connect 302 0 57 0;
#X connect 303 0 46 0;
#X connect 304 0 43 0;
#X connect 305 0 44 0;
#X connect 306 0 45 0;
#X connect 307 0 235 0;
