#N canvas 725 129 1103 673 12;
#X obj 678 344 cnv 15 350 85 empty empty empty 20 12 0 14 -203904 -66577
0;
#X obj 55 129 cnv 15 260 105 empty empty empty 20 12 0 14 -262130 -66577
0;
#X obj 226 344 cnv 15 451 85 empty empty empty 20 12 0 14 -232576 -66577
0;
#X obj 61 344 cnv 15 165 85 empty empty empty 20 12 0 14 -204786 -66577
0;
#X obj 316 130 cnv 15 713 105 empty empty empty 20 12 0 14 -261234
-66577 0;
#X obj 226 325 sel 1 2 3 4 5 6 7 8 9 10 11 12 13 14 15 16, f 114;
#X obj 226 365 tap, f 6;
#X obj 276 365 tap, f 6;
#X obj 326 365 tap, f 6;
#X obj 376 365 tap, f 6;
#X obj 426 365 tap, f 6;
#X obj 476 365 tap, f 6;
#X obj 526 365 tap, f 6;
#X obj 576 365 tap, f 6;
#X obj 627 365 tap, f 6;
#X obj 677 365 tap, f 6;
#X obj 727 365 tap, f 6;
#X obj 777 365 tap, f 6;
#X obj 827 365 tap, f 6;
#X obj 877 365 tap, f 6;
#X obj 927 365 tap, f 6;
#X obj 977 365 tap, f 6;
#X obj 226 345 r v1;
#X obj 276 346 r v2;
#X obj 326 346 r v3;
#X obj 376 346 r v4;
#X obj 426 346 r v5;
#X obj 476 346 r v6;
#X obj 526 346 r v7;
#X obj 576 346 r v8;
#X obj 627 346 r v9;
#X obj 677 346 r v10;
#X obj 727 346 r v11;
#X obj 777 346 r v12;
#X obj 827 346 r v13;
#X obj 877 346 r v14;
#X obj 927 346 r v15;
#X obj 977 346 r v16;
#X obj 575 512 *~;
#X obj 576 385 +~;
#X obj 226 303 + 1;
#X obj 226 236 metro;
#X obj 253 258 + 1;
#X obj 355 212 s v1;
#X obj 391 212 s v2;
#X obj 427 212 s v3;
#X obj 464 212 s v4;
#X obj 501 212 s v5;
#X obj 538 212 s v6;
#X obj 575 212 s v7;
#X obj 612 212 s v8;
#X obj 649 212 s v9;
#X obj 686 212 s v10;
#X obj 730 212 s v11;
#X obj 774 212 s v12;
#X obj 817 212 s v13;
#X obj 861 212 s v14;
#X obj 904 212 s v15;
#X obj 947 212 s v16;
#X obj 226 281 % 16;
#X obj 391 192 * 2;
#X obj 427 192 * 3;
#X obj 464 192 * 4;
#X obj 501 192 * 5;
#X obj 538 192 * 6;
#X obj 575 192 * 7;
#X obj 612 192 * 8;
#X obj 730 193 * 7;
#X obj 774 192 * 6;
#X obj 817 192 * 5;
#X obj 861 192 * 4;
#X obj 904 192 * 3;
#X obj 947 192 * 2;
#X floatatom 649 174 5 0 0 0 - - -;
#X obj 649 193 * 9;
#X obj 686 193 * 8;
#X obj 659 441 r scanner;
#X obj 575 531 outlet~;
#X obj 67 405 delwrite~ fx 1000;
#X obj 67 384 inlet~;
#X floatatom 259 218 5 0 0 0 - - -;
#X obj 649 131 r depth;
#X obj 259 103 r rate;
#X obj 198 217 loadbang;
#X obj 649 153 * 0.3;
#X obj 259 180 * -62.5;
#X obj 226 258 f 1;
#X obj 266 236 s sequencer;
#X text 60 530 ~created by Lehel Török~;
#X text 277 294 alternate the volume of specific taps in a sequence
so that each consecutive 'bang' increases the, f 98;
#X text 270 308 volume of its assigned tap while decreasing the volume
of the previous one, f 98;
#X text 698 170 step by the amount of the depth value., f 45;
#X text 704 156 increase/decrease delay time of successive, f 44;
#X text 476 145 range between 0 and 0.3;
#X text 468 130 recompute depth value to;
#X text 69 344 write dry signal;
#X text 67 361 into delay buffer;
#X text 716 409 time delay between every successive step.;
#X text 716 391 delay taps with a slightly decreasing, f 41;
#X text 270 406 time delay between every successive step.;
#X text 270 388 delay taps with a slightly increasing, f 41;
#X text 67 465 Hammond's Scanner Vibrato simulator with adjustable
;
#X text 59 482 rate \, depth \, and mix.;
#X obj 658 494 lop~ 1;
#X obj 659 468 sig~;
#X obj 259 122 * 9;
#X obj 259 141 + 1;
#X obj 259 160 expr log10($f1) / log10(10);
#X obj 259 199 + 63;
#X text 57 147 recompute to log and invert;
#X text 57 163 rate value (0-1) to run, f 27;
#X text 57 177 sequencer from 1 to 125 Hz, f 27;
#X connect 5 0 6 1;
#X connect 5 0 21 2;
#X connect 5 1 6 2;
#X connect 5 1 7 1;
#X connect 5 2 7 2;
#X connect 5 2 8 1;
#X connect 5 3 8 2;
#X connect 5 3 9 1;
#X connect 5 4 9 2;
#X connect 5 4 10 1;
#X connect 5 5 10 2;
#X connect 5 5 11 1;
#X connect 5 6 12 1;
#X connect 5 6 11 2;
#X connect 5 7 12 2;
#X connect 5 7 13 1;
#X connect 5 8 13 2;
#X connect 5 8 14 1;
#X connect 5 9 14 2;
#X connect 5 9 15 1;
#X connect 5 10 15 2;
#X connect 5 10 16 1;
#X connect 5 11 16 2;
#X connect 5 11 17 1;
#X connect 5 12 17 2;
#X connect 5 12 18 1;
#X connect 5 13 18 2;
#X connect 5 13 19 1;
#X connect 5 14 19 2;
#X connect 5 14 20 1;
#X connect 5 15 20 2;
#X connect 5 15 21 1;
#X connect 6 0 39 0;
#X connect 7 0 39 0;
#X connect 8 0 39 0;
#X connect 9 0 39 0;
#X connect 10 0 39 0;
#X connect 11 0 39 0;
#X connect 12 0 39 0;
#X connect 13 0 39 0;
#X connect 14 0 39 0;
#X connect 15 0 39 0;
#X connect 16 0 39 0;
#X connect 17 0 39 0;
#X connect 18 0 39 0;
#X connect 19 0 39 0;
#X connect 20 0 39 0;
#X connect 21 0 39 0;
#X connect 22 0 6 0;
#X connect 23 0 7 0;
#X connect 24 0 8 0;
#X connect 25 0 9 0;
#X connect 26 0 10 0;
#X connect 27 0 11 0;
#X connect 28 0 12 0;
#X connect 29 0 13 0;
#X connect 30 0 14 0;
#X connect 31 0 15 0;
#X connect 32 0 16 0;
#X connect 33 0 17 0;
#X connect 34 0 18 0;
#X connect 35 0 19 0;
#X connect 36 0 20 0;
#X connect 37 0 21 0;
#X connect 38 0 77 0;
#X connect 39 0 38 0;
#X connect 40 0 5 0;
#X connect 41 0 86 0;
#X connect 42 0 86 1;
#X connect 59 0 40 0;
#X connect 60 0 44 0;
#X connect 61 0 45 0;
#X connect 62 0 46 0;
#X connect 63 0 47 0;
#X connect 64 0 48 0;
#X connect 65 0 49 0;
#X connect 66 0 50 0;
#X connect 67 0 53 0;
#X connect 68 0 54 0;
#X connect 69 0 55 0;
#X connect 70 0 56 0;
#X connect 71 0 57 0;
#X connect 72 0 58 0;
#X connect 73 0 66 0;
#X connect 73 0 67 0;
#X connect 73 0 60 0;
#X connect 73 0 72 0;
#X connect 73 0 71 0;
#X connect 73 0 70 0;
#X connect 73 0 69 0;
#X connect 73 0 68 0;
#X connect 73 0 65 0;
#X connect 73 0 64 0;
#X connect 73 0 63 0;
#X connect 73 0 62 0;
#X connect 73 0 61 0;
#X connect 73 0 74 0;
#X connect 73 0 75 0;
#X connect 73 0 43 0;
#X connect 74 0 51 0;
#X connect 75 0 52 0;
#X connect 76 0 104 0;
#X connect 79 0 78 0;
#X connect 80 0 41 1;
#X connect 80 0 87 0;
#X connect 81 0 84 0;
#X connect 82 0 105 0;
#X connect 83 0 41 0;
#X connect 84 0 73 0;
#X connect 85 0 108 0;
#X connect 86 0 42 0;
#X connect 86 0 59 0;
#X connect 103 0 38 1;
#X connect 104 0 103 0;
#X connect 105 0 106 0;
#X connect 106 0 107 0;
#X connect 107 0 85 0;
#X connect 108 0 80 0;
