#N canvas 882 499 779 300 12;
#X obj 494 147 vline~;
#X obj 418 167 *~;
#X obj 466 109 inlet;
#X obj 533 109 inlet;
#X obj 417 189 outlet~;
#X obj 305 148 delread~ fx 5;
#X obj 533 128 pack 0 50;
#X obj 466 128 pack 1 50;
#X obj 305 128 inlet;
#X obj 594 109 r sequencer;
#X text 52 17 part of scanner.pd;
#X text 65 101 it with amount received on right inlet, f 39;
#X text 401 67 generate linear ramps whose levels and timing are;
#X text 65 85 read signal from delay buffer and delay;
#X text 402 84 determined by the rate and value of the sequencer.;
#X connect 0 0 1 1;
#X connect 1 0 4 0;
#X connect 2 0 7 0;
#X connect 3 0 6 0;
#X connect 5 0 1 0;
#X connect 6 0 0 0;
#X connect 7 0 0 0;
#X connect 8 0 5 0;
#X connect 9 0 7 1;
#X connect 9 0 6 1;
