#N canvas 512 74 542 869 10;
#X obj 52 409 line~;
#X obj 52 384 pack f f;
#X obj 238 557 hv.tanh;
#X obj 52 480 hip~ 40;
#X obj 52 504 lop~ 10000;
#X obj 238 492 vcf~ 1.5;
#X obj 238 512 hip~ 40;
#X obj 238 533 lop~ 6000;
#X obj 238 470 *~;
#X obj 341 476 sig~;
#X obj 341 450 mtof;
#X text 242 322 Writing into delay buffer;
#X text 57 437 Reading from Delay buffer;
#X text 375 476 Cut Off Fq;
#X text 290 557 saturation;
#X text 297 519 filter out low and high freqs;
#X text 125 326 Ramp time;
#X text 242 403 Feedback amount;
#X text 30 30 ===============================;
#X text 32 92 a Eurorack module based on Bela.;
#X text 30 21 Tape Delay - by Robert Thomas - robertthomassound.com
;
#X text 33 51 Tape delay simulator with variable-speed tape and saturation
;
#X obj 52 454 vd~ \$0-del1;
#X obj 237 346 delwrite~ \$0-del1 5000;
#X obj 236 299 *~;
#X text 278 230 FX send;
#X text 345 403 rolloff;
#X text 48 325 Tape speed;
#X text 40 634 Credits:;
#X text 41 646 Pd patching: Robert Thomas;
#X text 38 657 Additional Pd patching: Franky Redente;
#X text 40 677 Featuring components from the following libraries:;
#X text 40 687 RjLib \, Heavylib;
#X text 40 667 Original Pd patching: Jon Pigrem;
#X obj 52 346 r deltime;
#X obj 253 419 r feedback;
#X obj 276 249 r delay;
#X obj 52 530 outlet~;
#X obj 236 283 inlet~;
#X obj 341 420 r rolloff;
#X obj 122 368 r ramptime;
#X obj 276 283 vline~;
#X msg 276 266 100;
#X obj 252 453 vline~;
#X msg 253 436 100;
#X text 32 79 This patch was originally designed to run on Salt \,
;
#X text 33 160 You will find the original code in the Bela IDE under
examples/salt/tape-delay;
#X text 40 700 Edit: Lehel Török;
#X text 33 130 conbination with the effect_cape.;
#X text 33 117 This is a modified version created to run on Bela Mini
in;
#X connect 0 0 22 0;
#X connect 1 0 0 0;
#X connect 2 0 23 0;
#X connect 3 0 4 0;
#X connect 4 0 37 0;
#X connect 5 0 6 0;
#X connect 6 0 7 0;
#X connect 7 0 2 0;
#X connect 8 0 5 0;
#X connect 9 0 5 1;
#X connect 10 0 9 0;
#X connect 22 0 3 0;
#X connect 22 0 8 0;
#X connect 24 0 23 0;
#X connect 34 0 1 0;
#X connect 35 0 43 0;
#X connect 35 0 44 0;
#X connect 36 0 41 0;
#X connect 36 0 42 0;
#X connect 38 0 24 0;
#X connect 39 0 10 0;
#X connect 40 0 1 1;
#X connect 41 0 24 1;
#X connect 42 0 41 1;
#X connect 43 0 8 1;
#X connect 44 0 43 1;
